<svg width="1589" height="540" viewBox="0 0 1589 540" fill="none" xmlns="http://www.w3.org/2000/svg">
<path d="M373.311 336.874C373.311 340.092 351.584 342.679 324.793 342.679C298.003 342.679 276.253 340.092 276.253 336.874C276.253 333.655 297.981 331.089 324.793 331.089C351.605 331.089 373.311 333.677 373.311 336.874Z" fill="#333333"/>
<path d="M333.289 482.433C376.393 482.433 411.335 477.098 411.335 470.517C411.335 463.936 376.393 458.601 333.289 458.601C290.185 458.601 255.242 463.936 255.242 470.517C255.242 477.098 290.185 482.433 333.289 482.433Z" fill="#DDDDDD"/>
<path d="M326.966 318.042C326.966 318.042 220.825 185.617 239.815 27.7501C239.988 26.5765 240.477 25.4723 241.23 24.5562C241.983 23.6401 242.971 22.9468 244.089 22.5509C245.206 22.1551 246.41 22.0716 247.572 22.3096C248.733 22.5475 249.807 23.0978 250.679 23.9013C276.948 49.2991 349.585 136.67 337.069 316.586L326.966 318.042Z" fill="#ED3944"/>
<path d="M324.793 276.901C324.6 276.899 324.414 276.834 324.261 276.717C324.108 276.599 323.997 276.435 323.946 276.249C306.064 206.796 260.696 77.5675 260.24 76.1975C260.183 75.987 260.208 75.763 260.309 75.57C260.41 75.3769 260.58 75.2288 260.785 75.155C260.99 75.0812 261.215 75.087 261.416 75.1714C261.616 75.2557 261.778 75.4124 261.869 75.6104C262.325 76.9151 307.715 206.188 325.619 275.662C325.651 275.772 325.662 275.887 325.648 276.001C325.635 276.115 325.599 276.225 325.542 276.325C325.486 276.425 325.409 276.512 325.318 276.581C325.226 276.65 325.122 276.7 325.01 276.728L324.793 276.901Z" fill="#333333"/>
<path d="M338.373 346.311C338.373 346.311 304.282 212.407 233.645 159.415C233.104 158.994 232.445 158.751 231.76 158.721C231.075 158.692 230.398 158.876 229.822 159.249C229.247 159.622 228.801 160.165 228.548 160.802C228.295 161.44 228.246 162.14 228.408 162.807C235.774 192.967 264.52 296.472 322.62 346.311C327.689 348.268 333.304 348.268 338.373 346.311V346.311Z" fill="#0E2780"/>
<path d="M320.991 330.872C320.829 330.871 320.671 330.826 320.533 330.741C320.396 330.657 320.283 330.537 320.209 330.394C310.018 311.063 249.137 196.729 248.506 195.576C248.399 195.368 248.377 195.126 248.446 194.903C248.515 194.679 248.67 194.491 248.876 194.38C248.977 194.327 249.088 194.295 249.202 194.285C249.315 194.275 249.43 194.287 249.539 194.322C249.648 194.356 249.749 194.412 249.837 194.485C249.924 194.558 249.996 194.649 250.049 194.75C250.658 195.902 311.561 310.215 321.751 329.567C321.804 329.669 321.836 329.779 321.847 329.893C321.857 330.007 321.844 330.122 321.81 330.231C321.775 330.34 321.72 330.441 321.647 330.529C321.573 330.617 321.483 330.689 321.382 330.742C321.263 330.815 321.129 330.86 320.991 330.872V330.872Z" fill="#333333"/>
<path d="M228.973 255.157C235.296 270.53 257.219 317.847 298.176 348.029C298.176 348.029 336.504 356.313 333.484 348.029C316.667 301.756 250.114 262.746 231.733 252.678C231.376 252.476 230.965 252.391 230.558 252.435C230.15 252.479 229.767 252.65 229.462 252.924C229.157 253.198 228.946 253.561 228.858 253.962C228.77 254.362 228.811 254.78 228.973 255.157V255.157Z" fill="#ED3944"/>
<path d="M316.102 346.093C315.888 346.087 315.682 346.011 315.515 345.876C305.825 337.178 256.698 282.816 254.677 280.642C254.516 280.475 254.427 280.253 254.427 280.022C254.427 279.791 254.516 279.568 254.677 279.402C254.756 279.321 254.851 279.256 254.955 279.211C255.06 279.167 255.172 279.144 255.285 279.144C255.399 279.144 255.511 279.167 255.616 279.211C255.72 279.256 255.815 279.321 255.894 279.402C256.415 279.968 307.041 335.938 316.732 344.636C316.891 344.799 316.98 345.018 316.98 345.245C316.98 345.473 316.891 345.691 316.732 345.854C316.561 346.013 316.335 346.099 316.102 346.093V346.093Z" fill="#333333"/>
<path d="M323.337 346.311C323.337 346.311 296.873 172.527 355.734 87.2658C356.166 86.6778 356.745 86.2142 357.414 85.9217C358.082 85.6292 358.815 85.5182 359.54 85.5997C360.265 85.6813 360.956 85.9527 361.542 86.3864C362.129 86.8202 362.591 87.401 362.882 88.0704C370.639 111.098 397.212 228.367 350.714 342.049L323.337 346.311Z" fill="#09042D"/>
<path d="M337.743 281.946C337.629 281.941 337.517 281.913 337.413 281.864C337.31 281.815 337.217 281.746 337.141 281.661C337.064 281.576 337.005 281.477 336.967 281.369C336.928 281.262 336.911 281.147 336.917 281.033C337.634 265.964 351.996 131.56 352.127 130.212C352.153 129.981 352.269 129.77 352.45 129.625C352.632 129.48 352.863 129.414 353.094 129.44C353.324 129.466 353.535 129.582 353.68 129.764C353.824 129.945 353.891 130.177 353.865 130.407C353.713 131.755 339.373 266.094 338.656 281.12C338.65 281.234 338.622 281.346 338.573 281.45C338.524 281.553 338.455 281.646 338.371 281.723C338.286 281.799 338.187 281.859 338.079 281.897C337.971 281.935 337.857 281.952 337.743 281.946V281.946Z" fill="#333333"/>
<path d="M331.855 340.331C331.855 340.331 314.32 269.661 355.581 222.801C355.906 222.433 356.324 222.161 356.792 222.015C357.261 221.869 357.76 221.855 358.235 221.974C358.711 222.093 359.144 222.34 359.489 222.69C359.833 223.039 360.075 223.476 360.188 223.953C364.099 241.349 375.115 302.082 349.78 343.549L333.484 347.898L331.855 340.331Z" fill="#ED3944"/>
<path d="M340.003 336.852H339.872C339.645 336.82 339.44 336.699 339.301 336.515C339.163 336.332 339.103 336.101 339.134 335.873L352.713 245.089C352.724 244.966 352.759 244.845 352.819 244.736C352.878 244.627 352.959 244.532 353.057 244.456C353.156 244.381 353.268 244.326 353.389 244.297C353.509 244.267 353.634 244.263 353.756 244.285C353.87 244.3 353.98 244.339 354.079 244.398C354.177 244.458 354.263 244.537 354.33 244.63C354.397 244.724 354.444 244.83 354.469 244.943C354.494 245.055 354.495 245.172 354.473 245.285L340.893 336.069C340.867 336.286 340.761 336.486 340.597 336.63C340.433 336.775 340.221 336.854 340.003 336.852V336.852Z" fill="#333333"/>
<path d="M373.311 336.874C373.311 340.092 351.584 342.679 324.793 342.679C298.003 342.679 276.253 340.092 276.253 336.874C276.253 336.874 283.51 431.833 299.437 470.973C299.437 470.973 335.657 476.779 365.337 470.973L373.311 336.874Z" fill="#09042D"/>
<path d="M531.186 517.529C637.59 517.529 723.848 506.674 723.848 493.284C723.848 479.893 637.59 469.038 531.186 469.038C424.782 469.038 338.525 479.893 338.525 493.284C338.525 506.674 424.782 517.529 531.186 517.529Z" fill="#DDDDDD"/>
<path d="M584.985 460.471C584.985 460.471 587.701 468.625 602.91 475.692C618.12 482.759 630.613 483.846 633.329 487.108C636.045 490.37 619.206 495.262 602.367 494.175C585.528 493.088 562.714 480.041 562.714 480.041C562.714 480.041 564.343 463.189 564.886 459.927C565.43 456.665 584.985 460.471 584.985 460.471Z" fill="#EDAF8C"/>
<path d="M627.354 483.846C627.354 483.846 637.675 493.631 600.194 491.457C593.773 490.122 587.561 487.927 581.725 484.934C574.121 480.585 562.713 480.041 562.713 480.041C562.713 480.041 559.997 492.544 561.627 494.719C563.257 496.893 582.269 497.437 602.91 498.524C623.552 499.611 656.687 496.35 627.354 483.846Z" fill="#333333"/>
<path d="M555.652 475.692C555.652 475.692 558.368 483.846 573.577 490.913C588.787 497.98 601.281 499.068 603.997 502.329C606.712 505.591 589.873 510.484 573.034 509.396C556.195 508.309 533.381 495.262 533.381 495.262C533.381 495.262 535.01 478.41 535.554 475.148C536.097 471.887 555.652 475.692 555.652 475.692Z" fill="#EDAF8C"/>
<path d="M598.021 499.068C598.021 499.068 608.342 508.853 570.861 506.678C564.441 505.343 558.229 503.149 552.393 500.155C544.788 495.806 533.381 495.262 533.381 495.262C533.381 495.262 530.665 507.766 532.294 509.94C533.924 512.115 552.936 512.658 573.577 513.745C594.219 514.833 627.354 511.571 598.021 499.068Z" fill="#333333"/>
<path d="M488.469 244.828C488.469 244.828 546.418 263.681 562.344 316.586L563.8 452.86C563.8 452.86 534.815 479.671 523.234 492.001C523.234 492.001 508.024 502.873 450.076 502.873C392.128 502.873 361.73 486.195 361.73 486.195V286.861C361.73 286.861 362.447 254.244 382.72 244.828C402.992 235.413 488.469 244.828 488.469 244.828Z" fill="#4ECEE7"/>
<path d="M363.469 192.836C363.469 192.836 363.469 147.173 387.065 116.534C408.467 88.7661 417.484 57.1058 429.804 42.602C442.124 28.0983 462.396 25.9238 479.061 32.4473C495.726 38.9707 500.05 54.9313 494.988 67.9782L480.865 98.0511C480.865 98.0511 475.802 141.541 483.037 181.399L436.322 181.051L363.469 192.836Z" fill="#333333"/>
<path d="M552.936 303.909C552.936 303.909 539.899 284.882 529.035 276.728C518.171 268.573 494.814 250.634 493.727 246.829C492.641 243.023 486.123 186.487 480.148 168.548C474.998 153.087 470.913 135.387 453.531 126.689L443.21 145.716L464.395 281.077L549.677 312.063L552.936 303.909Z" fill="#DDDDDD"/>
<path d="M485.927 250.417C485.827 250.418 485.727 250.4 485.634 250.362C485.541 250.325 485.456 250.269 485.384 250.199C485.209 250.051 485.1 249.84 485.08 249.613C485.059 249.385 485.13 249.158 485.275 248.981C487.284 246.544 489.721 244.495 492.467 242.936C492.573 242.89 492.686 242.865 492.802 242.862C492.917 242.86 493.031 242.881 493.139 242.923C493.246 242.966 493.343 243.029 493.426 243.11C493.508 243.19 493.574 243.287 493.619 243.393C493.707 243.607 493.709 243.846 493.624 244.062C493.538 244.277 493.373 244.45 493.163 244.545C490.686 246.002 488.48 247.879 486.644 250.09C486.56 250.199 486.451 250.285 486.326 250.342C486.201 250.399 486.064 250.424 485.927 250.417V250.417Z" fill="#333333"/>
<path d="M485.949 244.284C485.808 244.285 485.67 244.252 485.545 244.188C485.42 244.124 485.313 244.03 485.232 243.915C485.165 243.824 485.117 243.72 485.091 243.611C485.064 243.501 485.06 243.387 485.078 243.276C485.097 243.164 485.137 243.058 485.197 242.962C485.257 242.866 485.335 242.784 485.427 242.719C487.523 241.386 489.963 240.698 492.445 240.74C492.676 240.74 492.897 240.832 493.06 240.995C493.223 241.158 493.315 241.379 493.315 241.61C493.315 241.841 493.223 242.062 493.06 242.225C492.897 242.388 492.676 242.48 492.445 242.48C490.33 242.449 488.25 243.022 486.449 244.132C486.301 244.232 486.127 244.285 485.949 244.284V244.284Z" fill="#333333"/>
<path d="M476.888 272.379C476.888 272.379 561.084 304.452 575.75 311.519C590.417 318.586 594.219 325.653 592.046 343.049C589.873 360.445 583.355 444.706 584.985 460.471C577.967 463.554 570.104 464.13 562.714 462.102C562.714 462.102 559.454 447.968 555.109 433.29C552.284 423.766 549.677 411.545 549.677 411.545C549.677 411.545 550.763 460.471 558.368 476.779C558.368 476.779 548.59 484.39 532.294 481.128L501.332 399.586L437.778 293.036L461.136 272.379H476.888Z" fill="#09042D"/>
<path d="M549.677 412.415C549.563 412.409 549.451 412.381 549.347 412.332C549.244 412.283 549.151 412.214 549.075 412.13C548.998 412.045 548.939 411.946 548.9 411.838C548.862 411.73 548.845 411.616 548.851 411.502C548.851 411.502 549.394 397.367 550.481 371.274C551.502 346.376 549.807 336.047 543.962 331.785C538.118 327.523 489.338 300.582 488.839 300.321C488.642 300.206 488.496 300.021 488.431 299.803C488.367 299.584 488.388 299.35 488.491 299.147C488.546 299.044 488.62 298.954 488.71 298.88C488.8 298.807 488.904 298.753 489.015 298.72C489.127 298.688 489.243 298.678 489.359 298.692C489.474 298.705 489.585 298.741 489.686 298.799C491.685 299.908 539.052 326.045 545.005 330.372C551.524 335.112 553.305 345.441 552.241 371.339C551.176 397.237 550.611 411.567 550.611 411.567C550.605 411.684 550.577 411.799 550.527 411.905C550.477 412.011 550.406 412.106 550.32 412.185C550.233 412.264 550.131 412.324 550.021 412.364C549.911 412.403 549.794 412.421 549.677 412.415Z" fill="#333333"/>
<path d="M447.903 289.775C447.903 289.775 460.592 279.62 472.173 277.076C483.754 274.531 484.124 275.64 483.754 274.553C483.385 273.466 477.975 269.117 475.063 262.594C472.152 256.07 471.456 238.674 469.631 228.52C467.806 218.365 464.569 202.056 464.569 190.466C464.569 178.876 458.767 141.91 452.249 132.125L412.052 132.843L401.558 239.022L421.113 282.881L447.903 289.775Z" fill="#F4F4F4"/>
<path d="M470.718 271.422C470.578 271.419 470.44 271.385 470.316 271.321C470.192 271.257 470.084 271.165 470.001 271.052C464.59 263.094 455.791 239.957 455.421 238.979C455.367 238.87 455.336 238.75 455.33 238.629C455.324 238.507 455.343 238.385 455.386 238.271C455.429 238.157 455.494 238.053 455.579 237.965C455.663 237.877 455.765 237.808 455.877 237.761C456.094 237.684 456.331 237.696 456.539 237.794C456.747 237.891 456.907 238.067 456.986 238.283C456.986 238.5 466.068 262.202 471.369 269.987C471.464 270.116 471.519 270.268 471.531 270.427C471.542 270.586 471.508 270.745 471.434 270.886C471.359 271.027 471.246 271.144 471.108 271.223C470.969 271.302 470.812 271.341 470.652 271.335L470.718 271.422Z" fill="#333333"/>
<path d="M412.791 131.038C412.791 131.038 424.003 153.131 439.951 152.783C455.899 152.435 453.705 137.909 453.705 136.822C454.367 132.076 455.361 127.382 456.681 122.775C457.365 120.122 458.312 117.543 459.506 115.077L428.001 90.8102L414.225 120.166L412.791 131.038Z" fill="#EDAF8C"/>
<path d="M428.001 90.8102L459.506 115.077C458.55 117.572 457.823 120.148 457.333 122.775C457.333 122.775 436.692 120.166 428.001 90.8102Z" fill="#333333"/>
<path d="M431.607 77.3936C431.607 77.3936 421.83 94.7894 431.977 102.77C437.626 107.119 448.99 117.252 457.681 117.991C466.372 118.73 480.148 109.293 485.21 93.7022C489.013 82.047 494.618 74.5016 494.618 64.7164L488.469 45.4941L459.854 42.9717L441.037 67.9781C441.037 67.9781 433.433 61.4547 429.435 66.1516C425.437 70.8484 431.607 77.3936 431.607 77.3936Z" fill="#EDAF8C"/>
<path d="M436.692 71.5877C436.692 71.5877 433.433 66.8908 431.26 69.0653C429.087 71.2398 433.433 75.219 434.519 74.5015C435.421 73.6763 436.158 72.6876 436.692 71.5877V71.5877Z" fill="#333333"/>
<path d="M441.037 67.9782C441.037 67.9782 464.938 72.675 484.841 56.0186C484.841 56.0186 487.752 66.1516 494.988 67.9782L496.074 61.0851L489.556 42.9717L452.249 38.9707L440.299 57.4537L441.037 67.9782Z" fill="#333333"/>
<path d="M472.521 95.7027C471.69 95.6853 470.868 95.5311 470.087 95.2461C469.979 95.2117 469.88 95.1561 469.793 95.0824C469.707 95.0087 469.637 94.9185 469.586 94.8172C469.536 94.7158 469.506 94.6054 469.499 94.4923C469.491 94.3792 469.507 94.2658 469.544 94.1588C469.614 93.9402 469.767 93.7581 469.971 93.6522C470.174 93.5462 470.412 93.5252 470.631 93.5935C471.127 93.8108 471.664 93.923 472.206 93.923C472.748 93.923 473.284 93.8108 473.781 93.5935C474.102 93.3721 474.373 93.0852 474.575 92.7517C474.777 92.4181 474.907 92.0454 474.954 91.6582C475.302 89.8099 478.8 78.6114 478.952 78.1547C479.036 77.9536 479.191 77.7911 479.388 77.6991C479.585 77.6072 479.81 77.5925 480.017 77.658C480.224 77.7236 480.4 77.8646 480.508 78.0531C480.617 78.2417 480.651 78.4641 480.604 78.6766C479.365 82.6776 476.932 90.5927 476.649 92.0061C476.562 92.6357 476.337 93.2385 475.992 93.7719C475.647 94.3054 475.189 94.7566 474.65 95.0939C474.011 95.4913 473.273 95.7021 472.521 95.7027V95.7027Z" fill="#333333"/>
<path d="M463.352 90.3752C462.678 93.376 457.29 94.7242 451.315 93.3107C445.339 91.8973 441.037 88.4182 441.733 85.4391C442.428 82.4601 447.795 81.0902 453.77 82.5036C459.745 83.917 464.047 87.3962 463.352 90.3752Z" fill="#DD8E7C"/>
<path d="M485.253 93.5497C482.059 94.1586 479.778 95.6155 479.3 97.703C479.185 98.584 479.29 99.4797 479.605 100.311C479.919 101.141 480.434 101.881 481.103 102.465C482.817 99.7414 484.195 96.8211 485.21 93.7672C485.244 93.7 485.259 93.6248 485.253 93.5497V93.5497Z" fill="#DD8E7C"/>
<path d="M431.607 77.3937C431.607 77.3937 431.26 99.5081 422.569 112.011C414.113 124.361 403.647 135.202 391.606 144.085C379.656 152.783 367.706 177.246 367.706 177.246C367.706 177.246 378.026 140.823 387.261 132.669C396.495 124.515 411.705 90.8102 411.705 90.8102L431.607 77.3937Z" fill="#333333"/>
<path d="M491.555 327.284C491.555 327.284 497.53 329.459 507.307 374.579C517.085 419.699 532.294 481.128 532.294 481.128L502.962 486.564L450.272 365.881L447.925 310.062L491.555 327.284Z" fill="#4ECEE7"/>
<path d="M473.26 310.062C473.26 310.062 486.296 317.673 491.011 321.304C494.039 323.819 496.363 327.076 497.756 330.757C499.15 334.439 499.566 338.419 498.964 342.31C498.964 342.31 494.271 335.438 489.925 333.264C485.579 331.089 467.458 323.109 460.592 315.498L473.26 310.062Z" fill="#EDAF8C"/>
<path d="M417.137 118.709C417.137 118.709 392.867 140.453 386.348 144.085C379.83 147.716 359.188 164.742 364.251 212.581C369.314 260.419 374.767 269.835 385.979 286.861C397.19 303.887 452.618 317.303 456.595 317.673C460.571 318.043 472.173 314.042 476.15 311.867C472.253 306.985 467.887 302.499 463.113 298.472C457.333 294.123 425.089 266.942 423.655 264.398C422.221 261.854 416.767 262.594 416.767 262.594C416.767 262.594 420.744 261.506 421.482 260.049C422.221 258.593 420.027 257.875 420.027 257.875C420.412 256.577 420.412 255.194 420.027 253.896C419.309 252.439 418.94 233.956 418.94 229.607C418.94 225.258 417.854 169.809 417.854 155.675C417.854 141.541 417.137 118.709 417.137 118.709Z" fill="#DDDDDD"/>
<path d="M419.309 251.852C419.127 251.856 418.948 251.801 418.799 251.695C418.65 251.589 418.54 251.438 418.484 251.265C415.594 242.11 410.683 189.923 410.466 187.748C410.454 187.635 410.465 187.521 410.498 187.412C410.531 187.303 410.586 187.202 410.659 187.115C410.732 187.027 410.822 186.956 410.923 186.904C411.024 186.852 411.135 186.821 411.248 186.813C411.363 186.801 411.478 186.812 411.588 186.845C411.698 186.878 411.801 186.932 411.889 187.005C411.978 187.078 412.052 187.168 412.106 187.269C412.16 187.37 412.193 187.482 412.204 187.596C412.204 188.14 417.289 241.958 420.135 250.83C420.172 250.938 420.186 251.053 420.178 251.167C420.169 251.281 420.137 251.392 420.085 251.494C420.032 251.596 419.959 251.686 419.871 251.758C419.782 251.831 419.68 251.885 419.57 251.917C419.479 251.917 419.389 251.895 419.309 251.852V251.852Z" fill="#333333"/>
<path d="M403.47 260.919C403.31 260.922 403.152 260.881 403.014 260.801C402.877 260.72 402.763 260.603 402.688 260.463C402.585 260.259 402.563 260.025 402.628 259.806C402.693 259.588 402.838 259.403 403.035 259.288C408.641 256.201 419.614 256.983 420.092 257.114C420.206 257.122 420.317 257.153 420.42 257.204C420.522 257.256 420.613 257.327 420.688 257.414C420.763 257.501 420.819 257.602 420.855 257.711C420.891 257.82 420.904 257.935 420.895 258.049C420.873 258.278 420.764 258.489 420.59 258.639C420.416 258.789 420.191 258.866 419.961 258.853C419.853 258.853 409.097 258.092 403.883 261.028C403.739 261.023 403.598 260.985 403.47 260.919V260.919Z" fill="#333333"/>
<path d="M1057.61 518.007C1211.2 518.007 1335.7 500.201 1335.7 478.236C1335.7 456.271 1211.2 438.465 1057.61 438.465C904.022 438.465 779.514 456.271 779.514 478.236C779.514 500.201 904.022 518.007 1057.61 518.007Z" fill="#DDDDDD"/>
<path d="M1196.52 58.4321C1184.65 90.4622 1150.89 203.644 1208.75 327.871H1230.48C1230.48 327.871 1265.68 170.352 1204.86 57.8233C1204.44 57.0446 1203.8 56.4038 1203.03 55.9783C1202.25 55.5528 1201.37 55.3607 1200.49 55.425C1199.61 55.4893 1198.76 55.8075 1198.06 56.341C1197.35 56.8745 1196.82 57.6007 1196.52 58.4321V58.4321Z" fill="#ED3944"/>
<path d="M1218.53 314.085C1218.31 314.086 1218.1 314.003 1217.93 313.854C1217.77 313.705 1217.67 313.5 1217.66 313.281L1201.34 108.88C1201.33 108.766 1201.34 108.651 1201.38 108.542C1201.42 108.433 1201.47 108.332 1201.55 108.245C1201.62 108.158 1201.71 108.087 1201.82 108.035C1201.92 107.984 1202.03 107.953 1202.14 107.945C1202.26 107.933 1202.37 107.944 1202.48 107.977C1202.59 108.01 1202.69 108.065 1202.78 108.138C1202.86 108.211 1202.94 108.301 1202.99 108.402C1203.04 108.504 1203.07 108.614 1203.08 108.728L1219.4 313.128C1219.41 313.358 1219.33 313.583 1219.18 313.757C1219.03 313.932 1218.82 314.041 1218.59 314.063L1218.53 314.085Z" fill="#333333"/>
<path d="M1222.2 318.891C1257.8 318.891 1286.67 314.812 1286.67 309.78C1286.67 304.748 1257.8 300.669 1222.2 300.669C1186.59 300.669 1157.73 304.748 1157.73 309.78C1157.73 314.812 1186.59 318.891 1222.2 318.891Z" fill="#333333"/>
<path d="M1241.75 330.285C1241.75 330.285 1236.45 253.222 1280.39 218.8C1281.03 218.297 1281.79 217.974 1282.6 217.863C1283.41 217.753 1284.23 217.859 1284.98 218.171C1285.74 218.483 1286.39 218.989 1286.89 219.638C1287.38 220.287 1287.7 221.056 1287.8 221.866C1289.97 240.631 1291.47 291.34 1253.33 333.829L1241.75 330.285Z" fill="#ED3944"/>
<path d="M1256.22 305.17C1256.15 305.189 1256.06 305.189 1255.99 305.17C1255.77 305.104 1255.58 304.956 1255.48 304.757C1255.37 304.558 1255.34 304.323 1255.4 304.104C1256.12 301.734 1272.78 246.176 1275.71 238.979C1275.76 238.871 1275.82 238.773 1275.9 238.69C1275.98 238.606 1276.07 238.539 1276.18 238.493C1276.28 238.446 1276.39 238.421 1276.51 238.419C1276.62 238.416 1276.74 238.437 1276.84 238.479C1277.05 238.57 1277.22 238.738 1277.31 238.948C1277.4 239.159 1277.4 239.395 1277.32 239.609C1274.48 246.742 1257.25 304.017 1257.07 304.604C1257.01 304.774 1256.89 304.919 1256.74 305.02C1256.59 305.121 1256.41 305.173 1256.22 305.17V305.17Z" fill="#333333"/>
<path d="M1247.38 114.925C1230.65 142.628 1186.76 228.933 1222.2 323.675H1241.56C1241.56 323.675 1293.7 231.368 1256.77 116.012C1256.45 115.077 1255.87 114.251 1255.1 113.631C1254.33 113.011 1253.4 112.621 1252.42 112.508C1251.44 112.394 1250.44 112.561 1249.55 112.988C1248.66 113.416 1247.91 114.088 1247.38 114.925V114.925Z" fill="#4ECEE7"/>
<path d="M1230.52 309.171C1230.41 309.16 1230.29 309.126 1230.19 309.072C1230.09 309.018 1230 308.945 1229.93 308.856C1229.86 308.767 1229.8 308.664 1229.77 308.554C1229.74 308.444 1229.73 308.328 1229.74 308.214L1246.03 161.481C1246.05 161.366 1246.08 161.256 1246.14 161.155C1246.19 161.055 1246.27 160.966 1246.36 160.894C1246.45 160.822 1246.55 160.769 1246.66 160.737C1246.77 160.706 1246.89 160.696 1247 160.709C1247.11 160.721 1247.23 160.757 1247.33 160.812C1247.43 160.868 1247.52 160.943 1247.59 161.033C1247.66 161.122 1247.71 161.226 1247.74 161.336C1247.78 161.446 1247.79 161.562 1247.77 161.676L1231.48 308.41C1231.44 308.635 1231.33 308.839 1231.15 308.98C1230.97 309.122 1230.75 309.19 1230.52 309.171V309.171Z" fill="#333333"/>
<path d="M1170.59 141.367C1185.93 165.438 1225.26 236.478 1216.11 322.565L1191.06 326.74C1191.06 326.74 1132.4 269.508 1162.16 142.475C1162.47 141.653 1162.99 140.929 1163.67 140.382C1164.36 139.835 1165.18 139.486 1166.04 139.371C1166.91 139.257 1167.8 139.383 1168.6 139.734C1169.4 140.086 1170.09 140.65 1170.59 141.367V141.367Z" fill="#0E2780"/>
<path d="M1198.97 309.345C1198.78 309.343 1198.59 309.278 1198.44 309.16C1198.29 309.042 1198.18 308.878 1198.12 308.692L1167.25 191.119C1167.22 191.007 1167.21 190.891 1167.23 190.777C1167.24 190.663 1167.28 190.553 1167.34 190.454C1167.4 190.355 1167.48 190.269 1167.57 190.2C1167.66 190.131 1167.77 190.081 1167.88 190.053C1168.1 190 1168.33 190.037 1168.53 190.155C1168.72 190.273 1168.87 190.463 1168.92 190.684L1199.86 308.258C1199.89 308.368 1199.9 308.482 1199.88 308.595C1199.87 308.708 1199.83 308.816 1199.77 308.913C1199.71 309.011 1199.63 309.095 1199.54 309.162C1199.45 309.229 1199.34 309.276 1199.23 309.301L1198.97 309.345Z" fill="#333333"/>
<path d="M1173.59 468.255C1173.59 470.082 1195.32 473.952 1222.2 473.952C1249.08 473.952 1270.78 470.082 1270.78 468.255L1286.67 309.801C1286.67 314.846 1257.79 318.912 1222.2 318.912C1186.61 318.912 1157.69 314.824 1157.69 309.78L1173.59 468.255Z" fill="#4ECEE7"/>
<path d="M1047.07 517.66C1046.84 517.66 1046.62 517.568 1046.46 517.405C1046.29 517.242 1046.2 517.02 1046.2 516.79V371.861C1046.2 371.747 1046.23 371.634 1046.27 371.528C1046.31 371.423 1046.38 371.327 1046.46 371.246C1046.54 371.165 1046.63 371.101 1046.74 371.057C1046.84 371.014 1046.96 370.991 1047.07 370.991C1047.19 370.991 1047.3 371.014 1047.4 371.057C1047.51 371.101 1047.61 371.165 1047.69 371.246C1047.77 371.327 1047.83 371.423 1047.87 371.528C1047.92 371.634 1047.94 371.747 1047.94 371.861V516.79C1047.94 517.02 1047.85 517.242 1047.69 517.405C1047.52 517.568 1047.3 517.66 1047.07 517.66V517.66Z" fill="#333333"/>
<path d="M1139.91 490C1139.7 490.001 1139.49 489.922 1139.33 489.777C1139.17 489.632 1139.07 489.433 1139.05 489.217L1124.44 333.438C1124.43 333.324 1124.44 333.208 1124.48 333.098C1124.51 332.988 1124.56 332.885 1124.64 332.796C1124.71 332.707 1124.8 332.634 1124.9 332.58C1125 332.526 1125.11 332.492 1125.23 332.481C1125.34 332.466 1125.46 332.475 1125.57 332.506C1125.68 332.538 1125.78 332.592 1125.87 332.666C1125.96 332.739 1126.04 332.83 1126.09 332.933C1126.14 333.036 1126.17 333.148 1126.18 333.264L1140.78 489.022C1140.8 489.135 1140.78 489.249 1140.75 489.358C1140.72 489.467 1140.66 489.568 1140.59 489.655C1140.52 489.742 1140.43 489.814 1140.33 489.866C1140.23 489.918 1140.12 489.949 1140 489.957L1139.91 490Z" fill="#333333"/>
<path d="M934.456 494.675H934.326C934.214 494.659 934.106 494.621 934.009 494.563C933.912 494.505 933.828 494.428 933.761 494.337C933.694 494.246 933.646 494.142 933.62 494.032C933.594 493.922 933.59 493.808 933.609 493.697L956.206 355.074C956.25 354.855 956.376 354.661 956.559 354.533C956.742 354.405 956.967 354.352 957.188 354.386C957.409 354.42 957.608 354.537 957.745 354.714C957.881 354.89 957.945 355.113 957.922 355.335L935.325 493.958C935.285 494.159 935.177 494.341 935.018 494.471C934.86 494.602 934.661 494.674 934.456 494.675V494.675Z" fill="#333333"/>
<path d="M880.18 464.82C880.18 464.82 866.948 501.459 863.08 506.635C859.908 510.853 865.253 519.856 872.597 519.856C879.941 519.856 891.283 512.441 894.629 502.916C897.975 493.392 903.798 465.363 903.798 465.363L893.217 459.557L880.18 464.82Z" fill="#EDAF8C"/>
<path d="M863.08 506.635C863.08 506.635 856.909 517.746 862.559 522.682C868.208 527.619 883.005 524.096 890.805 509.984C890.761 509.984 870.663 520.921 863.08 506.635Z" fill="#333333"/>
<path d="M946.363 360.249L1063.11 380.233L1142.48 333.438L1167.1 165.982H1047.07L1041.44 295.711L946.363 349.573V360.249Z" fill="#DDDDDD"/>
<path d="M1121.62 273.814C1121.62 273.814 1136.83 329.654 1081.97 339.961C1056.59 344.724 1025.47 348.42 978.173 342.788L930.936 452.121C926.309 452.328 921.688 451.588 917.356 449.946C915.237 449.199 913.18 448.283 911.207 447.207L899.127 468.364C884.33 470.539 880.093 464.82 880.093 464.82L889.262 425.331C889.262 425.331 906.166 347.05 911.816 329.372C913.599 324.133 916.559 319.374 920.469 315.461C924.379 311.548 929.135 308.585 934.369 306.801C934.369 306.801 938.584 276.684 944.929 258.962C953.403 235.456 1034.73 239.001 1034.73 239.001L1121.62 273.814Z" fill="#F4F4F4"/>
<path d="M1062.63 80.5901C1062.63 80.5901 1049.85 99.5297 1062.63 116.947L1091.81 135.887L1106.13 140.497C1106.13 140.497 1109.19 122.579 1101 113.86C1092.81 105.14 1084.12 96.4637 1089.25 84.1779C1094.37 71.8922 1095.37 42.689 1070.82 46.7987L1062.63 80.5901Z" fill="#333333"/>
<path d="M1045.86 90.223C1045.86 90.223 1063.39 91.332 1070.95 69.783C1078.51 48.2339 1067.13 24.3147 1054.44 18.4001C1041.75 12.4856 1045.86 90.223 1045.86 90.223Z" fill="#333333"/>
<path d="M1028.04 232.02C1017.44 219.409 1009.04 205.104 1003.18 189.705C974.11 219.865 936.564 223.562 914.901 227.258C893.238 230.955 828.12 233.782 828.12 233.782C822.514 228.802 823.405 218.017 824.122 213.276C824.318 211.863 824.535 210.971 824.535 210.971C824.535 210.971 914.336 184.399 927.59 181.225C940.844 178.05 956.141 165.895 973.588 151.608C991.036 137.322 1017.04 123.558 1017.04 123.558C1035.16 113.077 1064.63 110.793 1064.63 110.793L1113.21 237.761C1113.21 237.761 1123.21 258.919 1125.31 273.727C1125.31 273.727 1084.34 280.25 1057.37 270.748C1030.41 261.245 1035.45 254.678 1033.86 252.047L1028.04 232.02Z" fill="#ED3944"/>
<path d="M828.12 233.695C822.514 228.715 823.405 217.93 824.122 213.19C824.318 211.776 824.535 210.885 824.535 210.885C825.568 210.906 826.568 211.25 827.394 211.871C828.221 212.491 828.832 213.356 829.141 214.342C829.771 216.343 830.358 218.865 831.77 224.671C832.183 226.432 833.204 230.933 832.096 232.02C830.918 232.879 829.557 233.452 828.12 233.695V233.695Z" fill="#333333"/>
<path d="M1063.11 112.62C1063.11 112.62 1060.28 129.733 1045.72 137.67C1045.72 137.67 1025 152.5 1015.81 148.064C1006.03 143.345 1009.46 131.386 1012.59 127.972C1012.52 127.972 1030.86 115.273 1063.11 112.62Z" fill="#333333"/>
<path d="M1009.94 99.0514C1009.94 99.0514 1011.33 104.401 1012.57 112.098C1014.53 122.856 1014.95 133.839 1013.81 144.715C1013.81 144.715 1012.74 149.651 1023.5 149.477C1034.25 149.303 1054.7 138.083 1061.48 118.469C1054.23 110.321 1049.27 100.393 1047.12 89.7012L1019.09 94.8112L1009.94 99.0514Z" fill="#EDAF8C"/>
<path d="M1043.79 93.8761L1019.04 94.8111L1009.9 99.1601C1009.9 99.1601 1011.29 104.509 1012.52 112.207C1012.52 112.12 1033.58 112.924 1043.79 93.8761Z" fill="#333333"/>
<path d="M1000.53 51.452C997.733 62.6251 997.158 74.2394 998.836 85.6347C1000.75 97.0072 1006.44 102.878 1010.76 103.966C1015.09 105.053 1042.77 111.859 1055.35 73.0228C1055.35 73.0228 1064.74 73.3055 1065.17 64.912C1065.61 56.5185 1055.68 59.5628 1055.68 59.5628L1054.42 44.6894L1029.49 28.3809L1013.72 34.7738L1000.53 51.452Z" fill="#EDAF8C"/>
<path d="M1056.05 65.4992C1056.05 65.4992 1060 64.064 1061.56 65.1513C1063.13 66.2385 1056.98 68.2825 1056.22 68.0433C1055.46 67.8041 1056.05 65.4992 1056.05 65.4992Z" fill="#333333"/>
<path d="M1015.98 79.0245C1015.28 79.022 1014.59 78.8648 1013.96 78.564C1013.33 78.2633 1012.77 77.8264 1012.33 77.2849C1012 76.7498 1011.8 76.1473 1011.73 75.5223C1011.67 74.8974 1011.75 74.266 1011.96 73.6753C1012.46 71.827 1016.89 60.3023 1017.09 59.8021C1017.12 59.6837 1017.17 59.5731 1017.25 59.4779C1017.33 59.3826 1017.43 59.3047 1017.53 59.2493C1017.64 59.1939 1017.76 59.1622 1017.89 59.1564C1018.01 59.1505 1018.13 59.1707 1018.24 59.2154C1018.36 59.2601 1018.46 59.3284 1018.55 59.4159C1018.63 59.5034 1018.7 59.6081 1018.74 59.723C1018.78 59.8379 1018.8 59.9606 1018.79 60.0829C1018.79 60.2052 1018.75 60.3244 1018.7 60.4327C1017.11 64.5425 1014.02 72.6968 1013.65 74.1102C1013.51 74.4591 1013.45 74.834 1013.47 75.2093C1013.49 75.5846 1013.59 75.9514 1013.76 76.2846C1014.07 76.6053 1014.44 76.8579 1014.85 77.0264C1015.27 77.1949 1015.71 77.2755 1016.15 77.2632C1016.38 77.2905 1016.59 77.4055 1016.74 77.5838C1016.88 77.7622 1016.95 77.9902 1016.94 78.2199C1016.93 78.3363 1016.9 78.4498 1016.84 78.5537C1016.79 78.6577 1016.72 78.7499 1016.63 78.825C1016.54 78.9 1016.43 78.9564 1016.32 78.9906C1016.21 79.0249 1016.1 79.0364 1015.98 79.0245V79.0245Z" fill="#333333"/>
<path d="M1046.25 77.1326C1045.88 79.6333 1041.49 81.0901 1036.45 80.3508C1031.41 79.6115 1027.6 76.9804 1027.97 74.458C1028.34 71.9356 1032.71 70.5005 1037.77 71.2398C1042.83 71.9791 1046.62 74.6755 1046.25 77.1326Z" fill="#DD8E7C"/>
<path d="M998.532 64.1075H998.336C998.141 66.8909 998.032 69.9569 998.01 73.1969C1002.9 74.0884 1007.01 72.9142 1007.24 70.4788C1007.48 68.0434 1003.59 65.1295 998.532 64.1075Z" fill="#DD8E7C"/>
<path d="M1025.32 35.9917C1025.32 35.9917 1013.89 50.191 1000.62 51.7566C1000.62 51.7566 999.031 42.8848 1007.31 27.7287C1015.59 12.5726 1040.75 10.7678 1054.44 18.4002L1056.48 59.2803C1056.48 59.2803 1031.67 61.6288 1025.32 35.9917Z" fill="#333333"/>
<path d="M978.173 343.658C978.058 343.681 977.94 343.681 977.825 343.658C977.719 343.613 977.623 343.547 977.542 343.465C977.462 343.382 977.398 343.285 977.356 343.178C977.313 343.07 977.292 342.956 977.295 342.84C977.297 342.725 977.322 342.611 977.369 342.506C984.388 325.54 989.567 307.869 992.817 289.796C992.833 289.682 992.872 289.573 992.931 289.474C992.99 289.375 993.069 289.29 993.163 289.223C993.256 289.155 993.363 289.108 993.475 289.083C993.587 289.059 993.704 289.057 993.817 289.079C993.929 289.097 994.037 289.138 994.135 289.198C994.232 289.258 994.316 289.337 994.382 289.43C994.449 289.523 994.497 289.628 994.523 289.74C994.549 289.851 994.552 289.966 994.534 290.079C991.253 308.293 986.03 326.102 978.955 343.201C978.881 343.344 978.768 343.462 978.63 343.543C978.491 343.624 978.333 343.664 978.173 343.658V343.658Z" fill="#333333"/>
<path d="M992.557 296.581C992.364 296.578 992.177 296.514 992.024 296.396C991.871 296.278 991.761 296.114 991.709 295.928C991.676 295.818 991.666 295.703 991.679 295.589C991.693 295.475 991.729 295.365 991.785 295.265C991.842 295.166 991.919 295.079 992.01 295.01C992.102 294.94 992.206 294.891 992.318 294.863C996.663 293.645 1031.78 283.425 1032.12 283.316C1032.34 283.255 1032.58 283.282 1032.78 283.391C1032.99 283.501 1033.14 283.684 1033.21 283.904C1033.24 284.015 1033.25 284.132 1033.24 284.247C1033.23 284.363 1033.19 284.474 1033.13 284.576C1033.08 284.677 1033 284.766 1032.91 284.837C1032.82 284.908 1032.71 284.961 1032.6 284.991C1032.25 284.991 997.076 295.32 992.774 296.537L992.557 296.581Z" fill="#333333"/>
<path d="M930.936 452.121C926.309 452.328 921.688 451.588 917.356 449.946C915.237 449.199 913.18 448.283 911.207 447.206C911.207 447.206 882.961 495.175 880.18 497.219C877.399 499.263 892.869 506.396 892.869 506.396C892.869 506.396 914.01 493.697 919.659 483.107C925.309 472.517 930.936 452.121 930.936 452.121Z" fill="#EDAF8C"/>
<path d="M880.18 497.285C880.18 497.285 872.423 506.461 873.835 509.983C875.247 513.506 881.592 519.16 892.174 514.202C902.755 509.244 914.727 496.219 922.832 476.279C922.832 476.279 901.104 505.069 894.585 502.916C889.686 501.299 884.877 499.419 880.18 497.285V497.285Z" fill="#333333"/>
<path d="M910.164 250.677L990.666 283.947L1057.11 250.677L990.666 230.977L910.164 250.677Z" fill="#09042D"/>
<path d="M1020.8 230.955L1017.11 232.803C1017.11 232.803 1004.79 236.13 994.012 239.805C986.994 240.501 976.978 241.544 974.457 241.979C971.328 242.501 971.676 246.046 978.998 246.198C970.785 251.199 965.483 258.31 967.135 259.962C968.412 261.503 970.012 262.744 971.822 263.597C973.632 264.45 975.607 264.894 977.608 264.898C984.365 265.507 1001.01 260.549 1013.31 257.505C1025.6 254.461 1029.93 250.112 1029.93 250.112L1020.8 230.955Z" fill="#EDAF8C"/>
<path d="M968.656 261.811C968.537 261.808 968.42 261.782 968.312 261.733C968.204 261.684 968.106 261.615 968.026 261.528C967.944 261.449 967.879 261.354 967.835 261.25C967.791 261.145 967.768 261.033 967.768 260.919C967.768 260.806 967.791 260.693 967.835 260.589C967.879 260.484 967.944 260.389 968.026 260.31C968.373 259.984 976.369 252.439 982.692 250.395C982.802 250.358 982.918 250.343 983.033 250.351C983.149 250.36 983.262 250.391 983.365 250.444C983.468 250.497 983.56 250.569 983.635 250.658C983.709 250.747 983.766 250.849 983.8 250.96C983.868 251.179 983.847 251.417 983.741 251.62C983.636 251.824 983.454 251.977 983.235 252.047C977.282 253.983 969.308 261.485 969.221 261.572C969.069 261.719 968.867 261.804 968.656 261.811V261.811Z" fill="#333333"/>
<path d="M971.698 263.855C971.55 263.851 971.406 263.811 971.278 263.739C971.149 263.667 971.04 263.565 970.959 263.442C970.838 263.245 970.8 263.009 970.853 262.785C970.906 262.561 971.046 262.367 971.241 262.246C975.067 259.755 979.085 257.574 983.257 255.722C983.367 255.689 983.482 255.678 983.596 255.689C983.711 255.701 983.821 255.735 983.922 255.789C984.023 255.844 984.113 255.918 984.185 256.007C984.257 256.096 984.311 256.199 984.343 256.309C984.412 256.528 984.391 256.766 984.285 256.969C984.179 257.173 983.997 257.327 983.778 257.397C979.757 259.167 975.877 261.247 972.176 263.616C972.049 263.749 971.88 263.834 971.698 263.855Z" fill="#333333"/>
<path d="M979.085 247.024C978.913 247.019 978.747 246.964 978.605 246.868C978.463 246.772 978.35 246.638 978.281 246.481C978.195 246.267 978.197 246.029 978.287 245.817C978.376 245.605 978.546 245.437 978.759 245.35C982.092 243.948 985.528 242.807 989.036 241.936C989.148 241.911 989.263 241.908 989.376 241.929C989.488 241.949 989.595 241.992 989.691 242.055C989.786 242.118 989.868 242.2 989.931 242.295C989.994 242.391 990.037 242.498 990.058 242.61C990.08 242.723 990.079 242.839 990.056 242.952C990.033 243.064 989.988 243.171 989.923 243.266C989.858 243.361 989.776 243.443 989.679 243.505C989.583 243.568 989.475 243.611 989.362 243.632C985.971 244.482 982.651 245.594 979.433 246.959C979.322 247.002 979.204 247.024 979.085 247.024V247.024Z" fill="#333333"/>
<path d="M1064.52 110.794C1063.28 127.438 1065.25 144.166 1070.32 160.067C1072.12 165.786 1074.47 172.201 1077.06 178.702C1086.62 202.904 1099.41 228.846 1099.41 228.846C1099.41 228.846 1046.62 222.692 1020.8 231.238C1020.8 231.238 1024.74 245.154 1029.49 250.46C1029.49 250.46 1036.99 251.786 1046.33 254.091C1065.69 258.875 1098.18 266.312 1115.3 267.029C1118.02 267.17 1120.74 266.906 1123.38 266.247C1140.65 261.637 1140.55 239.022 1139.61 231.586C1138.55 223.127 1122.68 148.956 1111.58 132.647C1100.48 116.338 1077.73 109.663 1064.52 110.794Z" fill="#ED3944"/>
<path d="M940.431 256.527L928.133 260.223L960.769 274.401L969.677 269.791L940.431 256.527Z" fill="#333333"/>
<path d="M829.141 214.342C822.688 215.034 816.169 213.904 810.325 211.08C801.309 206.995 791.998 203.6 782.469 200.925C776.69 199.12 775.408 199.294 775.06 200.751C774.713 202.208 779.21 205.1 781.035 206.187C783.003 207.631 784.875 209.2 786.641 210.884C786.641 210.884 773.974 211.428 764.392 212.885C754.81 214.342 743.75 215.951 743.576 217.408C743.403 218.865 747.009 219.213 752.615 219.408C758.221 219.604 766.195 220.126 766.195 220.126C766.195 220.126 767.629 221.583 765.478 221.757C763.327 221.931 753.702 223.192 749.378 223.735C745.054 224.279 742.664 225.562 742.859 226.649C743.055 227.737 746.292 228.28 753.723 227.737C761.154 227.193 767.651 226.454 767.477 227.193C767.303 227.932 766.391 228.628 761.154 229.367C755.918 230.107 746.119 232.216 744.858 232.607C741.751 233.608 741.969 235.521 745.771 236.065C749.573 236.608 762.958 234.977 765.848 234.608C768.737 234.238 769.476 235.869 767.846 236.239C766.217 236.608 755.353 240.044 753.919 240.588C752.485 241.131 749.443 243.806 754.81 243.654C757.895 243.654 770.91 240.392 773.822 240.218C776.733 240.044 792.616 239.305 801.134 236.956C809.651 234.608 811.259 232.259 813.801 232.433C816.343 232.607 828.076 231.716 831.705 232.064C835.333 232.412 829.141 214.342 829.141 214.342Z" fill="#EDAF8C"/>
<path d="M780.123 233.673C779.951 233.676 779.783 233.623 779.645 233.521C773.474 229.411 770.193 218.474 770.063 218.017C770.03 217.907 770.019 217.792 770.031 217.677C770.043 217.563 770.077 217.453 770.131 217.352C770.186 217.251 770.259 217.161 770.348 217.089C770.437 217.017 770.54 216.962 770.649 216.93C770.759 216.897 770.875 216.886 770.989 216.898C771.103 216.909 771.213 216.943 771.314 216.998C771.415 217.052 771.504 217.126 771.577 217.215C771.649 217.304 771.703 217.407 771.736 217.517C771.736 217.625 774.973 228.389 780.601 232.064C780.791 232.196 780.922 232.397 780.967 232.624C781.011 232.852 780.966 233.087 780.84 233.282C780.764 233.404 780.659 233.504 780.533 233.572C780.407 233.641 780.266 233.676 780.123 233.673Z" fill="#333333"/>
<path d="M796.593 218.191H796.462C794.294 217.946 792.211 217.207 790.373 216.031C788.535 214.855 786.991 213.273 785.859 211.406C785.806 211.305 785.774 211.194 785.764 211.08C785.754 210.966 785.766 210.852 785.8 210.743C785.835 210.634 785.89 210.532 785.964 210.445C786.037 210.357 786.127 210.285 786.228 210.232C786.431 210.129 786.666 210.108 786.884 210.173C787.102 210.237 787.288 210.383 787.402 210.58C788.4 212.207 789.758 213.583 791.369 214.605C792.981 215.626 794.805 216.265 796.701 216.473C796.932 216.487 797.147 216.593 797.3 216.766C797.453 216.939 797.53 217.166 797.516 217.397C797.502 217.628 797.396 217.843 797.223 217.996C797.05 218.149 796.823 218.227 796.593 218.212V218.191Z" fill="#333333"/>
<path d="M1116.64 267.834H1115.23C1097.85 267.116 1064.45 259.397 1046.09 254.787C1045.87 254.726 1045.68 254.58 1045.56 254.382C1045.45 254.183 1045.41 253.946 1045.46 253.722C1045.52 253.501 1045.66 253.311 1045.86 253.193C1046.05 253.075 1046.28 253.038 1046.51 253.091C1064.8 257.614 1098.05 265.29 1115.3 266.007C1117.94 266.156 1120.58 265.899 1123.14 265.246C1123.25 265.203 1123.38 265.185 1123.5 265.192C1123.62 265.199 1123.74 265.232 1123.85 265.288C1123.96 265.345 1124.05 265.423 1124.13 265.518C1124.2 265.614 1124.26 265.724 1124.29 265.842C1124.32 265.96 1124.32 266.083 1124.3 266.203C1124.28 266.324 1124.24 266.438 1124.17 266.54C1124.1 266.642 1124.02 266.728 1123.91 266.794C1123.81 266.859 1123.7 266.903 1123.58 266.921C1121.31 267.524 1118.98 267.831 1116.64 267.834V267.834Z" fill="#333333"/>
<path d="M1020.8 232.02C1020.62 232.016 1020.44 231.956 1020.29 231.847C1020.15 231.738 1020.04 231.586 1019.98 231.412C1019.91 231.192 1019.93 230.955 1020.04 230.752C1020.14 230.548 1020.32 230.394 1020.54 230.324C1043.79 222.714 1088.92 226.889 1097.89 227.824C1095.09 222.061 1084.4 199.773 1076.17 179.029C1076.12 178.921 1076.1 178.807 1076.11 178.692C1076.11 178.578 1076.13 178.465 1076.18 178.36C1076.23 178.255 1076.29 178.16 1076.38 178.081C1076.46 178.001 1076.56 177.939 1076.67 177.898C1076.77 177.856 1076.89 177.837 1077 177.839C1077.12 177.842 1077.23 177.867 1077.33 177.914C1077.44 177.96 1077.53 178.027 1077.61 178.11C1077.69 178.193 1077.75 178.291 1077.79 178.398C1087.22 202.317 1100 228.215 1100.13 228.411C1100.21 228.546 1100.25 228.7 1100.25 228.857C1100.25 229.014 1100.21 229.168 1100.13 229.302C1100.04 229.432 1099.92 229.535 1099.78 229.601C1099.64 229.666 1099.48 229.691 1099.33 229.672C1098.81 229.672 1046.57 223.627 1021.11 231.847L1020.8 232.02Z" fill="#333333"/>
<path d="M1003.18 190.575C1002.96 190.571 1002.75 190.486 1002.59 190.338C1002.43 190.19 1002.33 189.988 1002.31 189.77C1002.24 187.153 1001.75 184.563 1000.88 182.095C999.031 182.095 998.705 181.203 998.597 179.92C998.597 179.42 998.445 178.92 995.989 178.92C995.759 178.92 995.538 178.828 995.375 178.665C995.212 178.502 995.12 178.281 995.12 178.05C995.12 177.819 995.212 177.598 995.375 177.435C995.538 177.272 995.759 177.18 995.989 177.18C997.271 177.18 999.966 177.18 1000.34 179.55C1000.37 179.843 1000.42 180.133 1000.49 180.42H1001.12C1001.73 180.42 1003.29 180.42 1004.09 189.684C1004.1 189.798 1004.09 189.913 1004.05 190.022C1004.02 190.131 1003.96 190.231 1003.89 190.318C1003.81 190.405 1003.72 190.476 1003.62 190.528C1003.52 190.579 1003.4 190.61 1003.29 190.619L1003.18 190.575Z" fill="#333333"/>
<path d="M948.731 186.617C948.506 186.614 948.29 186.529 948.123 186.378C944.538 182.769 937.259 180.638 937.085 180.616C936.975 180.584 936.872 180.53 936.783 180.457C936.694 180.385 936.62 180.296 936.565 180.195C936.511 180.094 936.477 179.983 936.465 179.868C936.454 179.754 936.465 179.639 936.498 179.529C936.564 179.311 936.712 179.128 936.911 179.018C937.11 178.908 937.344 178.881 937.563 178.942C941.884 180.164 945.902 182.275 949.361 185.139C949.517 185.308 949.604 185.529 949.604 185.759C949.604 185.988 949.517 186.21 949.361 186.378C949.187 186.532 948.963 186.617 948.731 186.617V186.617Z" fill="#333333"/>
<path d="M944.212 192.793C944.031 192.79 943.855 192.733 943.707 192.628C943.56 192.523 943.448 192.376 943.386 192.206C942.408 189.553 936.868 184.247 934.695 182.421C934.536 182.258 934.447 182.039 934.447 181.812C934.447 181.584 934.536 181.365 934.695 181.203C934.774 181.121 934.869 181.056 934.973 181.012C935.078 180.968 935.19 180.945 935.303 180.945C935.417 180.945 935.529 180.968 935.634 181.012C935.738 181.056 935.833 181.121 935.912 181.203C936.238 181.486 943.69 188.096 945.016 191.706C945.057 191.811 945.077 191.924 945.075 192.037C945.072 192.151 945.047 192.262 945 192.366C944.953 192.469 944.887 192.562 944.803 192.639C944.72 192.716 944.623 192.776 944.516 192.815L944.212 192.793Z" fill="#333333"/>
<path d="M1110.34 237.761C1110.21 237.762 1110.08 237.733 1109.96 237.677C1109.84 237.62 1109.73 237.537 1109.65 237.435C1106.9 233.958 1103.27 231.291 1099.13 229.715C1098.91 229.643 1098.73 229.487 1098.63 229.281C1098.52 229.075 1098.51 228.836 1098.58 228.617C1098.65 228.398 1098.81 228.216 1099.01 228.112C1099.22 228.008 1099.46 227.991 1099.67 228.063C1104.16 229.719 1108.08 232.596 1111.02 236.369C1111.09 236.458 1111.14 236.561 1111.17 236.671C1111.21 236.781 1111.22 236.897 1111.2 237.011C1111.19 237.124 1111.15 237.234 1111.09 237.333C1111.03 237.432 1110.96 237.519 1110.86 237.587C1110.72 237.704 1110.53 237.766 1110.34 237.761V237.761Z" fill="#333333"/>
<path d="M880.028 500.285C879.875 500.294 879.724 500.256 879.593 500.177C879.492 500.12 879.404 500.044 879.333 499.953C879.262 499.862 879.21 499.758 879.18 499.647C879.149 499.536 879.142 499.419 879.157 499.305C879.172 499.191 879.209 499.08 879.267 498.981L895.563 470.452C895.62 470.352 895.696 470.264 895.787 470.193C895.878 470.123 895.982 470.071 896.093 470.041C896.204 470.011 896.32 470.002 896.434 470.017C896.548 470.031 896.658 470.068 896.758 470.125C896.858 470.182 896.946 470.259 897.016 470.35C897.086 470.441 897.138 470.545 897.168 470.656C897.199 470.767 897.207 470.883 897.192 470.997C897.178 471.111 897.141 471.221 897.084 471.321L880.788 499.85C880.709 499.982 880.598 500.092 880.465 500.168C880.332 500.244 880.181 500.285 880.028 500.285V500.285Z" fill="#333333"/>
<path d="M911.207 448.054H911.055C910.942 448.036 910.834 447.995 910.737 447.935C910.64 447.875 910.556 447.796 910.489 447.703C910.423 447.61 910.375 447.505 910.349 447.394C910.323 447.282 910.319 447.167 910.338 447.054L933.609 306.67C933.624 306.556 933.663 306.446 933.722 306.348C933.782 306.249 933.861 306.163 933.954 306.096C934.048 306.029 934.154 305.982 934.266 305.957C934.379 305.932 934.495 305.931 934.608 305.952C934.833 305.995 935.033 306.123 935.167 306.309C935.3 306.495 935.357 306.726 935.325 306.953L912.163 447.337C912.126 447.556 912.006 447.753 911.828 447.886C911.65 448.02 911.428 448.08 911.207 448.054V448.054Z" fill="#333333"/>
<path d="M1459.71 99.3123C1459.71 99.3123 1402.54 215.842 1436.91 305.887L1459.71 335.612L1476.18 161.654L1459.71 99.3123Z" fill="#0E2780"/>
<path d="M85.4603 598.898C85.4603 598.898 117.4 466.559 207.267 404.261C207.873 403.847 208.585 403.616 209.319 403.596C210.053 403.576 210.776 403.768 211.404 404.148C212.032 404.529 212.537 405.082 212.859 405.742C213.181 406.402 213.306 407.141 213.22 407.87C209.853 433.964 192.97 520.095 111.099 618.316L85.4603 598.898Z" fill="#ED3944"/>
<path d="M111.121 569.869C110.953 569.866 110.789 569.821 110.643 569.738C110.453 569.606 110.322 569.405 110.277 569.178C110.232 568.95 110.278 568.715 110.404 568.52C113.25 564.171 190.797 439.335 191.514 438.052C191.635 437.856 191.829 437.716 192.053 437.663C192.277 437.61 192.513 437.648 192.709 437.769C192.897 437.898 193.029 438.091 193.082 438.313C193.134 438.534 193.102 438.766 192.992 438.965C189.798 444.119 114.771 565.085 111.86 569.434C111.783 569.562 111.675 569.67 111.546 569.746C111.417 569.822 111.271 569.864 111.121 569.869V569.869Z" fill="#333333"/>
<path d="M6.45769 460.84C6.45769 460.84 -25.7213 177.224 53.5855 49.2124C55.9756 45.3636 61.1033 46.4291 63.1023 50.4954C78.8985 82.982 77.4427 304.648 28.0987 473.561L6.45769 460.84Z" fill="#ED3944"/>
<path d="M19.8638 413.285C19.6333 413.285 19.4122 413.193 19.2492 413.03C19.0863 412.867 18.9947 412.646 18.9947 412.415C18.9947 396.498 49.5658 103.183 50.8695 90.7232C50.8809 90.609 50.9147 90.4981 50.9689 90.3969C51.0231 90.2958 51.0967 90.2063 51.1855 90.1336C51.2743 90.0609 51.3765 90.0064 51.4863 89.9733C51.5961 89.9401 51.7114 89.929 51.8255 89.9404C51.9397 89.9518 52.0504 89.9856 52.1515 90.0398C52.2526 90.0941 52.342 90.1678 52.4146 90.2566C52.4873 90.3455 52.5417 90.4478 52.5748 90.5577C52.608 90.6676 52.6192 90.7829 52.6077 90.8971C52.2818 93.9414 20.7329 396.65 20.7329 412.415C20.7329 412.646 20.6414 412.867 20.4784 413.03C20.3154 413.193 20.0943 413.285 19.8638 413.285V413.285Z" fill="#333333"/>
<path d="M19.9942 715.971C19.9942 715.971 -24.5045 441.988 129.546 232.651C130.715 231.076 132.298 229.857 134.12 229.132C135.941 228.406 137.929 228.203 139.859 228.543C141.79 228.884 143.587 229.756 145.051 231.062C146.514 232.367 147.586 234.054 148.145 235.935C165.071 293.254 198.119 476.127 35.5948 722.082L19.9942 715.971Z" fill="#4ECEE7"/>
<path d="M47.3931 643.801C47.1681 643.797 46.9521 643.712 46.7847 643.561C46.7026 643.48 46.6373 643.384 46.5928 643.278C46.5483 643.171 46.5254 643.057 46.5254 642.942C46.5254 642.826 46.5483 642.712 46.5928 642.606C46.6373 642.499 46.7026 642.403 46.7847 642.322C50.5436 636.799 99.54 413.546 124.766 296.298C124.779 296.177 124.817 296.061 124.877 295.955C124.938 295.85 125.019 295.759 125.117 295.687C125.215 295.616 125.327 295.565 125.445 295.539C125.564 295.514 125.686 295.513 125.805 295.537C125.924 295.562 126.036 295.611 126.135 295.681C126.234 295.752 126.316 295.842 126.378 295.946C126.44 296.051 126.479 296.167 126.493 296.287C126.508 296.408 126.497 296.53 126.461 296.646C118.9 331.698 52.4122 639.147 48.0014 643.561C47.834 643.712 47.618 643.797 47.3931 643.801V643.801Z" fill="#333333"/>
<path d="M28.0987 708.035C28.0987 708.035 84.5912 524.444 236.817 476.344C241.901 474.735 247.681 481.259 246.616 487.391C239.229 529.554 203.53 653.738 35.3123 719.298L28.0987 708.035Z" fill="#0E2780"/>
<path d="M66.2311 677.157C66.0411 677.156 65.8565 677.094 65.704 676.981C65.5516 676.867 65.4393 676.708 65.3837 676.526C65.3508 676.415 65.3404 676.298 65.3533 676.183C65.3662 676.067 65.402 675.956 65.4587 675.854C65.5155 675.753 65.5919 675.664 65.6835 675.593C65.7751 675.522 65.88 675.469 65.9921 675.439C73.8142 673.265 166.744 571.282 214.785 517.681C214.95 517.527 215.167 517.441 215.393 517.441C215.619 517.441 215.837 517.527 216.002 517.681C216.084 517.762 216.149 517.859 216.193 517.965C216.238 518.071 216.261 518.186 216.261 518.301C216.261 518.416 216.238 518.53 216.193 518.637C216.149 518.743 216.084 518.84 216.002 518.921C210.352 525.183 76.7257 674.178 66.4701 677.114L66.2311 677.157Z" fill="#333333"/>
<path d="M705.357 735.194C705.357 735.194 687.975 612.227 743.099 529.097C743.471 528.539 743.998 528.1 744.614 527.834C745.231 527.569 745.911 527.487 746.573 527.6C747.234 527.712 747.849 528.014 748.343 528.469C748.837 528.924 749.189 529.512 749.356 530.163C755.31 553.451 769.976 632.145 733.69 743L705.357 735.194Z" fill="#0E2780"/>
<path d="M853.628 724.082C853.628 724.082 797.809 613.184 823.579 516.724C823.751 516.073 824.109 515.485 824.608 515.033C825.108 514.581 825.728 514.284 826.393 514.179C827.058 514.073 827.739 514.162 828.355 514.437C828.97 514.711 829.492 515.158 829.858 515.724C842.895 535.881 882.005 605.769 882.961 722.43L853.628 724.082Z" fill="#ED3944"/>
<path d="M852.042 667.002C851.861 667 851.685 666.942 851.538 666.838C851.391 666.733 851.278 666.585 851.217 666.415C848.327 657.717 830.228 539.382 829.489 534.338C829.467 534.226 829.469 534.111 829.494 533.999C829.519 533.888 829.566 533.783 829.633 533.691C829.701 533.6 829.786 533.523 829.885 533.465C829.983 533.408 830.093 533.372 830.206 533.359C830.318 533.34 830.434 533.344 830.545 533.37C830.656 533.396 830.761 533.444 830.854 533.51C830.947 533.577 831.026 533.661 831.086 533.759C831.146 533.856 831.187 533.964 831.205 534.077C831.379 535.316 850.043 657.326 852.933 665.85C852.971 665.958 852.986 666.073 852.979 666.188C852.972 666.302 852.943 666.414 852.892 666.517C852.842 666.621 852.771 666.713 852.685 666.788C852.599 666.864 852.499 666.922 852.39 666.959L852.042 667.002Z" fill="#333333"/>
<path d="M1503.16 706.078C1503.16 706.078 1364.6 608.226 1339.25 451.207C1339.08 450.029 1339.25 448.83 1339.72 447.737C1340.19 446.645 1340.95 445.702 1341.91 445.01C1342.88 444.318 1344.02 443.904 1345.2 443.812C1346.38 443.72 1347.57 443.954 1348.63 444.488C1380.99 461.732 1474.92 525.509 1512.59 701.881L1503.16 706.078Z" fill="#0E2780"/>
<path d="M1488.65 668.307C1488.53 668.31 1488.4 668.286 1488.29 668.237C1488.18 668.189 1488.08 668.116 1488 668.024C1473.63 652.216 1383.12 507.353 1379.36 501.199C1379.25 501.003 1379.22 500.773 1379.27 500.556C1379.33 500.339 1379.47 500.152 1379.66 500.034C1379.85 499.916 1380.08 499.877 1380.3 499.924C1380.52 499.97 1380.71 500.1 1380.83 500.286C1381.77 501.786 1475.11 651.15 1489.47 666.85C1489.63 667.016 1489.72 667.239 1489.72 667.47C1489.72 667.701 1489.63 667.923 1489.47 668.09C1489.36 668.192 1489.23 668.266 1489.09 668.304C1488.94 668.342 1488.79 668.343 1488.65 668.307V668.307Z" fill="#333333"/>
<path d="M1478.65 694.401C1478.65 694.401 1322.45 465.081 1373.42 210.145C1373.82 208.224 1374.74 206.45 1376.08 205.022C1377.42 203.594 1379.13 202.567 1381.02 202.057C1382.92 201.547 1384.91 201.574 1386.79 202.135C1388.67 202.695 1390.35 203.767 1391.65 205.231C1431.26 250.003 1538.58 401.651 1495.36 693.335L1478.65 694.401Z" fill="#ED3944"/>
<path d="M1471.22 622.904C1471.01 622.901 1470.81 622.823 1470.65 622.683C1470.49 622.544 1470.38 622.352 1470.35 622.143C1466.01 589.221 1397.2 274.575 1396.48 271.4C1396.45 271.182 1396.5 270.959 1396.62 270.777C1396.75 270.595 1396.94 270.468 1397.15 270.421C1397.37 270.374 1397.59 270.411 1397.78 270.524C1397.97 270.637 1398.11 270.818 1398.17 271.03C1398.87 274.205 1467.7 588.917 1472.05 621.925C1472.08 622.153 1472.02 622.384 1471.88 622.567C1471.74 622.75 1471.54 622.872 1471.31 622.904H1471.22Z" fill="#333333"/>
<path d="M1565.39 361.141C1565.39 361.141 1424.42 141.301 1437.83 4.13558C1438.22 -0.0176605 1442.87 -1.21361 1446.15 1.33053C1472.22 21.5966 1560.59 204.187 1588.31 362.815L1565.39 361.141Z" fill="#ED3944"/>
<path d="M1524.89 232.107C1524.71 232.107 1524.54 232.053 1524.39 231.952C1524.24 231.851 1524.13 231.708 1524.06 231.542C1518.35 215.777 1459.49 62.0419 1458.88 60.498C1458.84 60.391 1458.82 60.2767 1458.82 60.1618C1458.82 60.0468 1458.85 59.9335 1458.89 59.8283C1458.94 59.7232 1459.01 59.6283 1459.09 59.5491C1459.17 59.47 1459.27 59.4082 1459.38 59.3673C1459.49 59.3256 1459.6 59.3055 1459.71 59.3082C1459.83 59.3109 1459.94 59.3363 1460.04 59.383C1460.14 59.4296 1460.24 59.4965 1460.31 59.5797C1460.39 59.6629 1460.45 59.7608 1460.49 59.8674C1461.1 61.4113 1519.96 215.168 1525.67 230.933C1525.74 231.153 1525.73 231.392 1525.63 231.601C1525.54 231.811 1525.36 231.977 1525.15 232.064L1524.89 232.107Z" fill="#333333"/>
</svg>
