<svg width="48" height="49" viewBox="0 0 48 49" fill="none" xmlns="http://www.w3.org/2000/svg">
<path d="M24 44.0668C21.2333 44.0668 18.6333 43.5418 16.2 42.4918C13.7667 41.4418 11.65 40.0168 9.85 38.2168C8.05 36.4168 6.625 34.3001 5.575 31.8668C4.525 29.4334 4 26.8334 4 24.0668C4 21.3001 4.525 18.7001 5.575 16.2668C6.625 13.8334 8.05 11.7168 9.85 9.91677C11.65 8.11677 13.7667 6.69177 16.2 5.64177C18.6333 4.59177 21.2333 4.06677 24 4.06677C26.7667 4.06677 29.3667 4.59177 31.8 5.64177C34.2333 6.69177 36.35 8.11677 38.15 9.91677C39.95 11.7168 41.375 13.8334 42.425 16.2668C43.475 18.7001 44 21.3001 44 24.0668C44 26.8334 43.475 29.4334 42.425 31.8668C41.375 34.3001 39.95 36.4168 38.15 38.2168C36.35 40.0168 34.2333 41.4418 31.8 42.4918C29.3667 43.5418 26.7667 44.0668 24 44.0668ZM21.85 41.0168V36.9168C20.6833 36.9168 19.7 36.4834 18.9 35.6168C18.1 34.7501 17.7 33.7334 17.7 32.5668V30.3668L7.45 20.1168C7.28333 20.7834 7.16667 21.4418 7.1 22.0918C7.03333 22.7418 7 23.4001 7 24.0668C7 28.4001 8.40833 32.1834 11.225 35.4168C14.0417 38.6501 17.5833 40.5168 21.85 41.0168ZM36.55 35.6168C37.2833 34.8168 37.925 33.9668 38.475 33.0668C39.025 32.1668 39.4917 31.2251 39.875 30.2418C40.2583 29.2584 40.5417 28.2501 40.725 27.2168C40.9083 26.1834 41 25.1334 41 24.0668C41 20.5334 40.0333 17.3251 38.1 14.4418C36.1667 11.5584 33.5833 9.45011 30.35 8.11677V9.01677C30.35 10.1834 29.95 11.2001 29.15 12.0668C28.35 12.9334 27.3667 13.3668 26.2 13.3668H21.85V17.7168C21.85 18.2834 21.625 18.7501 21.175 19.1168C20.725 19.4834 20.2167 19.6668 19.65 19.6668H15.5V24.0668H28.4C28.9667 24.0668 29.4333 24.2834 29.8 24.7168C30.1667 25.1501 30.35 25.6501 30.35 26.2168V32.5668H32.5C33.4667 32.5668 34.3167 32.8501 35.05 33.4168C35.7833 33.9834 36.2833 34.7168 36.55 35.6168Z" fill="#FFFBF9"/>
</svg>
