<svg width="844" height="772" viewBox="0 0 844 772" fill="none" xmlns="http://www.w3.org/2000/svg">
<path d="M616.019 34.0562C629.342 34.0562 640.142 44.8563 640.142 58.179V711.302C640.142 724.625 629.342 735.425 616.019 735.425H216.603C208.253 735.425 200.246 732.108 194.342 726.204C188.437 720.3 185.121 712.293 185.121 703.943V58.179C185.121 44.8563 195.921 34.0562 209.243 34.0562H616.019Z" fill="#4ECEE7"/>
<g style="mix-blend-mode:overlay" opacity="0.4">
<path d="M282.27 247.978H98.8866C75.6314 247.978 56.7793 266.83 56.7793 290.085C56.7793 313.341 75.6314 332.193 98.8866 332.193H282.27C305.525 332.193 324.377 313.341 324.377 290.085C324.377 266.83 305.525 247.978 282.27 247.978Z" fill="#09042D"/>
<path d="M233.866 207.917H50.4823C27.2271 207.917 8.375 226.769 8.375 250.024C8.375 273.279 27.2271 292.131 50.4823 292.131H233.866C257.121 292.131 275.973 273.279 275.973 250.024C275.973 226.769 257.121 207.917 233.866 207.917Z" fill="#09042D"/>
</g>
<path d="M274.399 240.106H91.016C67.7608 240.106 48.9087 258.959 48.9087 282.214C48.9087 305.469 67.7608 324.321 91.016 324.321H274.399C297.655 324.321 316.507 305.469 316.507 282.214C316.507 258.959 297.655 240.106 274.399 240.106Z" fill="#4ECEE7"/>
<path d="M225.995 200.046H42.6117C19.3565 200.046 0.504395 218.898 0.504395 242.153C0.504395 265.408 19.3565 284.261 42.6117 284.261H225.995C249.25 284.261 268.102 265.408 268.102 242.153C268.102 218.898 249.25 200.046 225.995 200.046Z" fill="#4ECEE7"/>
<g style="mix-blend-mode:overlay" opacity="0.4">
<path d="M397.419 8.87786L345.703 113.749L510.151 194.846L561.867 89.9746L397.419 8.87786Z" fill="#09042D"/>
<path d="M345.679 113.731L459.46 94.5791L510.12 194.85L345.679 113.731Z" fill="#09042D"/>
<path d="M397.415 8.87012L443.72 121.366L561.856 89.9628L397.415 8.87012Z" fill="#09042D"/>
</g>
<path d="M389.53 0.990649L337.813 105.862L502.261 186.959L553.978 82.0874L389.53 0.990649Z" fill="#EADAB5"/>
<path d="M337.809 105.861L451.59 86.709L502.25 186.98L337.809 105.861Z" fill="#FCEFD4"/>
<path d="M389.545 1L435.85 113.496L553.987 82.0927L389.545 1Z" fill="#D8C59E"/>
<g style="mix-blend-mode:overlay" opacity="0.4">
<path d="M843.018 182.415V235.935H321.989V182.415C322.01 174.907 325.001 167.712 330.311 162.403C335.62 157.094 342.814 154.102 350.323 154.082H814.684C822.192 154.102 829.387 157.094 834.696 162.403C840.005 167.712 842.997 174.907 843.018 182.415Z" fill="#09042D"/>
<path d="M843.018 235.934V517.699C842.997 525.207 840.005 532.402 834.696 537.711C829.387 543.02 822.192 546.012 814.684 546.032H350.323C342.814 546.012 335.62 543.02 330.311 537.711C325.001 532.402 322.01 525.207 321.989 517.699V235.934H843.018Z" fill="#09042D"/>
<path d="M416.146 267.81H404.078C386.691 267.81 372.596 281.905 372.596 299.292V304.093C372.596 321.48 386.691 335.575 404.078 335.575H416.146C433.534 335.575 447.629 321.48 447.629 304.093V299.292C447.629 281.905 433.534 267.81 416.146 267.81Z" fill="#09042D"/>
<path d="M505.136 267.81H493.068C475.681 267.81 461.586 281.905 461.586 299.292V304.093C461.586 321.48 475.681 335.575 493.068 335.575H505.136C522.523 335.575 536.618 321.48 536.618 304.093V299.292C536.618 281.905 522.523 267.81 505.136 267.81Z" fill="#09042D"/>
<path d="M598.559 267.81H586.491C569.104 267.81 555.009 281.905 555.009 299.292V304.093C555.009 321.48 569.104 335.575 586.491 335.575H598.559C615.946 335.575 630.041 321.48 630.041 304.093V299.292C630.041 281.905 615.946 267.81 598.559 267.81Z" fill="#09042D"/>
<path d="M691.983 267.81H679.915C662.528 267.81 648.433 281.905 648.433 299.292V304.093C648.433 321.48 662.528 335.575 679.915 335.575H691.983C709.37 335.575 723.465 321.48 723.465 304.093V299.292C723.465 281.905 709.37 267.81 691.983 267.81Z" fill="#09042D"/>
<path d="M416.62 357.141H404.551C387.164 357.141 373.069 371.236 373.069 388.623V393.424C373.069 410.811 387.164 424.906 404.551 424.906H416.62C434.007 424.906 448.102 410.811 448.102 393.424V388.623C448.102 371.236 434.007 357.141 416.62 357.141Z" fill="#09042D"/>
<path d="M505.609 357.141H493.541C476.154 357.141 462.059 371.236 462.059 388.623V393.424C462.059 410.811 476.154 424.906 493.541 424.906H505.609C522.996 424.906 537.091 410.811 537.091 393.424V388.623C537.091 371.236 522.996 357.141 505.609 357.141Z" fill="#09042D"/>
<path d="M599.032 357.141H586.964C569.576 357.141 555.481 371.236 555.481 388.623V393.424C555.481 410.811 569.576 424.906 586.964 424.906H599.032C616.419 424.906 630.514 410.811 630.514 393.424V388.623C630.514 371.236 616.419 357.141 599.032 357.141Z" fill="#09042D"/>
<path d="M692.455 357.141H680.386C662.999 357.141 648.904 371.236 648.904 388.623V393.424C648.904 410.811 662.999 424.906 680.386 424.906H692.455C709.842 424.906 723.937 410.811 723.937 393.424V388.623C723.937 371.236 709.842 357.141 692.455 357.141Z" fill="#09042D"/>
<path d="M416.62 443.271H404.551C387.164 443.271 373.069 457.366 373.069 474.753V479.554C373.069 496.941 387.164 511.036 404.551 511.036H416.62C434.007 511.036 448.102 496.941 448.102 479.554V474.753C448.102 457.366 434.007 443.271 416.62 443.271Z" fill="#09042D"/>
<path d="M505.609 443.271H493.541C476.154 443.271 462.059 457.366 462.059 474.753V479.554C462.059 496.941 476.154 511.036 493.541 511.036H505.609C522.996 511.036 537.091 496.941 537.091 479.554V474.753C537.091 457.366 522.996 443.271 505.609 443.271Z" fill="#09042D"/>
<path d="M599.032 443.271H586.964C569.576 443.271 555.481 457.366 555.481 474.753V479.554C555.481 496.941 569.576 511.036 586.964 511.036H599.032C616.419 511.036 630.514 496.941 630.514 479.554V474.753C630.514 457.366 616.419 443.271 599.032 443.271Z" fill="#09042D"/>
<path d="M692.455 443.271H680.386C662.999 443.271 648.904 457.366 648.904 474.753V479.554C648.904 496.941 662.999 511.036 680.386 511.036H692.455C709.842 511.036 723.937 496.941 723.937 479.554V474.753C723.937 457.366 709.842 443.271 692.455 443.271Z" fill="#09042D"/>
<path d="M789.97 267.81H777.902C760.515 267.81 746.42 281.905 746.42 299.292V304.093C746.42 321.48 760.515 335.575 777.902 335.575H789.97C807.357 335.575 821.452 321.48 821.452 304.093V299.292C821.452 281.905 807.357 267.81 789.97 267.81Z" fill="#09042D"/>
<path d="M790.443 357.141H778.375C760.988 357.141 746.893 371.236 746.893 388.623V393.424C746.893 410.811 760.988 424.906 778.375 424.906H790.443C807.83 424.906 821.925 410.811 821.925 393.424V388.623C821.925 371.236 807.83 357.141 790.443 357.141Z" fill="#09042D"/>
<path d="M403.528 128.554C403.528 121.353 397.69 115.516 390.489 115.516C383.288 115.516 377.45 121.353 377.45 128.554V181.969C377.45 189.17 383.288 195.008 390.489 195.008C397.69 195.008 403.528 189.17 403.528 181.969V128.554Z" fill="#09042D"/>
<path d="M801.357 128.554C801.357 121.353 795.519 115.516 788.318 115.516C781.117 115.516 775.279 121.353 775.279 128.554V181.969C775.279 189.17 781.117 195.008 788.318 195.008C795.519 195.008 801.357 189.17 801.357 181.969V128.554Z" fill="#09042D"/>
</g>
<path d="M835.147 174.546V228.065H314.118V174.546C314.139 167.038 317.131 159.843 322.44 154.534C327.749 149.225 334.944 146.233 342.452 146.212H806.813C814.322 146.233 821.516 149.225 826.825 154.534C832.135 159.843 835.126 167.038 835.147 174.546Z" fill="#ED3944"/>
<path d="M835.147 228.063V509.828C835.126 517.337 832.135 524.531 826.825 529.841C821.516 535.15 814.322 538.142 806.813 538.162H342.452C334.944 538.142 327.749 535.15 322.44 529.841C317.131 524.531 314.139 517.337 314.118 509.828V228.063H835.147Z" fill="#FFFBF9"/>
<path d="M408.277 259.94H396.209C378.822 259.94 364.727 274.035 364.727 291.423V296.224C364.727 313.611 378.822 327.706 396.209 327.706H408.277C425.664 327.706 439.759 313.611 439.759 296.224V291.423C439.759 274.035 425.664 259.94 408.277 259.94Z" fill="#CFD2E1"/>
<path d="M497.266 259.94H485.197C467.81 259.94 453.715 274.035 453.715 291.423V296.224C453.715 313.611 467.81 327.706 485.197 327.706H497.266C514.653 327.706 528.748 313.611 528.748 296.224V291.423C528.748 274.035 514.653 259.94 497.266 259.94Z" fill="#CFD2E1"/>
<path d="M590.688 259.94H578.62C561.233 259.94 547.138 274.035 547.138 291.423V296.224C547.138 313.611 561.233 327.706 578.62 327.706H590.688C608.076 327.706 622.171 313.611 622.171 296.224V291.423C622.171 274.035 608.076 259.94 590.688 259.94Z" fill="#CFD2E1"/>
<path d="M684.113 259.94H672.045C654.658 259.94 640.563 274.035 640.563 291.423V296.224C640.563 313.611 654.658 327.706 672.045 327.706H684.113C701.5 327.706 715.595 313.611 715.595 296.224V291.423C715.595 274.035 701.5 259.94 684.113 259.94Z" fill="#CFD2E1"/>
<path d="M408.747 349.271H396.679C379.292 349.271 365.197 363.366 365.197 380.753V385.554C365.197 402.941 379.292 417.036 396.679 417.036H408.747C426.134 417.036 440.229 402.941 440.229 385.554V380.753C440.229 363.366 426.134 349.271 408.747 349.271Z" fill="#CFD2E1"/>
<path d="M497.738 349.271H485.67C468.283 349.271 454.188 363.366 454.188 380.753V385.554C454.188 402.941 468.283 417.036 485.67 417.036H497.738C515.125 417.036 529.22 402.941 529.22 385.554V380.753C529.22 363.366 515.125 349.271 497.738 349.271Z" fill="#CFD2E1"/>
<path d="M591.161 349.271H579.093C561.706 349.271 547.611 363.366 547.611 380.753V385.554C547.611 402.941 561.706 417.036 579.093 417.036H591.161C608.548 417.036 622.643 402.941 622.643 385.554V380.753C622.643 363.366 608.548 349.271 591.161 349.271Z" fill="#CFD2E1"/>
<path d="M684.584 349.271H672.516C655.129 349.271 641.034 363.366 641.034 380.753V385.554C641.034 402.941 655.129 417.036 672.516 417.036H684.584C701.972 417.036 716.067 402.941 716.067 385.554V380.753C716.067 363.366 701.972 349.271 684.584 349.271Z" fill="#CFD2E1"/>
<path d="M408.747 435.401H396.679C379.292 435.401 365.197 449.496 365.197 466.883V471.684C365.197 489.071 379.292 503.166 396.679 503.166H408.747C426.134 503.166 440.229 489.071 440.229 471.684V466.883C440.229 449.496 426.134 435.401 408.747 435.401Z" fill="#CFD2E1"/>
<path d="M497.738 435.401H485.67C468.283 435.401 454.188 449.496 454.188 466.883V471.684C454.188 489.071 468.283 503.166 485.67 503.166H497.738C515.125 503.166 529.22 489.071 529.22 471.684V466.883C529.22 449.496 515.125 435.401 497.738 435.401Z" fill="#CFD2E1"/>
<path d="M591.161 435.401H579.093C561.706 435.401 547.611 449.496 547.611 466.883V471.684C547.611 489.071 561.706 503.166 579.093 503.166H591.161C608.548 503.166 622.643 489.071 622.643 471.684V466.883C622.643 449.496 608.548 435.401 591.161 435.401Z" fill="#ED3944"/>
<path d="M684.584 435.401H672.516C655.129 435.401 641.034 449.496 641.034 466.883V471.684C641.034 489.071 655.129 503.166 672.516 503.166H684.584C701.972 503.166 716.067 489.071 716.067 471.684V466.883C716.067 449.496 701.972 435.401 684.584 435.401Z" fill="#ED3944"/>
<path d="M782.099 259.94H770.031C752.644 259.94 738.549 274.035 738.549 291.423V296.224C738.549 313.611 752.644 327.706 770.031 327.706H782.099C799.486 327.706 813.581 313.611 813.581 296.224V291.423C813.581 274.035 799.486 259.94 782.099 259.94Z" fill="#CFD2E1"/>
<path d="M782.573 349.271H770.505C753.117 349.271 739.022 363.366 739.022 380.753V385.554C739.022 402.941 753.117 417.036 770.505 417.036H782.573C799.96 417.036 814.055 402.941 814.055 385.554V380.753C814.055 363.366 799.96 349.271 782.573 349.271Z" fill="#CFD2E1"/>
<path d="M395.657 120.684C395.657 113.483 389.82 107.645 382.618 107.645C375.417 107.645 369.58 113.483 369.58 120.684V174.099C369.58 181.3 375.417 187.137 382.618 187.137C389.82 187.137 395.657 181.3 395.657 174.099V120.684Z" fill="#FFFBF9"/>
<path d="M793.486 120.684C793.486 113.483 787.648 107.645 780.447 107.645C773.246 107.645 767.408 113.483 767.408 120.684V174.099C767.408 181.3 773.246 187.137 780.447 187.137C787.648 187.137 793.486 181.3 793.486 174.099V120.684Z" fill="#FFFBF9"/>
<g style="mix-blend-mode:overlay" opacity="0.4">
<path d="M541.813 680.778H358.43C335.174 680.778 316.322 699.63 316.322 722.885C316.322 746.14 335.174 764.993 358.43 764.993H541.813C565.068 764.993 583.92 746.14 583.92 722.885C583.92 699.63 565.068 680.778 541.813 680.778Z" fill="#09042D"/>
<path d="M493.409 640.689H310.026C286.771 640.689 267.918 659.542 267.918 682.797C267.918 706.052 286.771 724.904 310.026 724.904H493.409C516.664 724.904 535.516 706.052 535.516 682.797C535.516 659.542 516.664 640.689 493.409 640.689Z" fill="#09042D"/>
<path d="M282.27 247.978H98.8866C75.6314 247.978 56.7793 266.83 56.7793 290.085C56.7793 313.341 75.6314 332.193 98.8866 332.193H282.27C305.525 332.193 324.377 313.341 324.377 290.085C324.377 266.83 305.525 247.978 282.27 247.978Z" fill="#09042D"/>
<path d="M233.866 207.917H50.4823C27.2271 207.917 8.375 226.769 8.375 250.024C8.375 273.279 27.2271 292.131 50.4823 292.131H233.866C257.121 292.131 275.973 273.279 275.973 250.024C275.973 226.769 257.121 207.917 233.866 207.917Z" fill="#09042D"/>
<path d="M417.065 687.127H233.682C210.427 687.127 191.575 705.979 191.575 729.234C191.575 752.489 210.427 771.342 233.682 771.342H417.065C440.321 771.342 459.173 752.489 459.173 729.234C459.173 705.979 440.321 687.127 417.065 687.127Z" fill="#09042D"/>
</g>
<path d="M533.942 672.907H350.559C327.304 672.907 308.452 691.759 308.452 715.014C308.452 738.269 327.304 757.121 350.559 757.121H533.942C557.198 757.121 576.05 738.269 576.05 715.014C576.05 691.759 557.198 672.907 533.942 672.907Z" fill="#0E2780"/>
<path d="M485.539 632.82H302.155C278.9 632.82 260.048 651.672 260.048 674.927C260.048 698.182 278.9 717.034 302.155 717.034H485.539C508.794 717.034 527.646 698.182 527.646 674.927C527.646 651.672 508.794 632.82 485.539 632.82Z" fill="#0E2780"/>
<path d="M274.399 240.106H91.016C67.7608 240.106 48.9087 258.959 48.9087 282.214C48.9087 305.469 67.7608 324.321 91.016 324.321H274.399C297.655 324.321 316.507 305.469 316.507 282.214C316.507 258.959 297.655 240.106 274.399 240.106Z" fill="#0E2780"/>
<path d="M225.995 200.046H42.6117C19.3565 200.046 0.504395 218.898 0.504395 242.153C0.504395 265.408 19.3565 284.261 42.6117 284.261H225.995C249.25 284.261 268.102 265.408 268.102 242.153C268.102 218.898 249.25 200.046 225.995 200.046Z" fill="#0E2780"/>
<path d="M409.195 679.256H225.811C202.556 679.256 183.704 698.108 183.704 721.363C183.704 744.618 202.556 763.471 225.811 763.471H409.195C432.45 763.471 451.302 744.618 451.302 721.363C451.302 698.108 432.45 679.256 409.195 679.256Z" fill="#0E2780"/>
<g style="mix-blend-mode:overlay" opacity="0.4">
<path d="M542.053 580.956L524.346 696.538L705.589 724.304L723.296 608.723L542.053 580.956Z" fill="#09042D"/>
<path d="M524.367 696.491L627.051 643.942L705.599 724.247L524.367 696.491Z" fill="#09042D"/>
<path d="M542.048 580.899L620.124 674.218L723.307 608.656L542.048 580.899Z" fill="#09042D"/>
</g>
<path d="M534.185 573.062L516.478 688.644L697.72 716.41L715.427 600.829L534.185 573.062Z" fill="#EADAB5"/>
<path d="M516.497 688.621L619.181 636.072L697.729 716.378L516.497 688.621Z" fill="#FCEFD4"/>
<path d="M534.179 573.03L612.254 666.349L715.437 600.787L534.179 573.03Z" fill="#D8C59E"/>
<g style="mix-blend-mode:overlay" opacity="0.4">
<path d="M437.247 439.41L227.904 532.703L287.398 666.202L496.741 572.909L437.247 439.41Z" fill="#09042D"/>
<path d="M287.41 666.192L359.898 541.522L496.74 572.9L287.41 666.192Z" fill="#09042D"/>
<path d="M227.908 532.681L373.067 578.041L437.238 439.389L227.908 532.681Z" fill="#09042D"/>
</g>
<path d="M429.374 431.54L220.031 524.833L279.524 658.332L488.867 565.039L429.374 431.54Z" fill="#EADAB5"/>
<path d="M279.541 658.32L352.028 533.651L488.87 565.028L279.541 658.32Z" fill="#FCEFD4"/>
<path d="M220.04 524.81L365.198 570.171L429.369 431.518L220.04 524.81Z" fill="#D8C59E"/>
</svg>
