<svg width="700" height="719" viewBox="0 0 700 719" fill="none" xmlns="http://www.w3.org/2000/svg">
<g clip-path="url(#clip0_201_364)">
<path d="M9.12467 544.149C13.6921 546.841 12.4324 530.811 12.4324 530.811C12.4324 530.811 13.2997 545.722 16.9069 548.5C19.7912 550.713 20.958 536.687 21.1542 531.861H21.285C21.5019 536.59 22.0594 551.325 25.4807 552.544C29.3598 553.921 29.1188 534.646 29.019 531.751H29.0672C33.3111 562.821 37.5894 539.891 36.8494 526.426C39.1486 528.196 44.3563 531.297 45.6023 530.027C47.0307 528.564 43.1929 522.847 41.9332 521.233C39.0385 517.508 34.8221 508.955 31.8586 505.29C30.5713 503.699 10.6185 507.186 10.6185 507.186C10.6185 507.186 8.37775 513.189 7.38303 522.771C7.22772 523.353 7.14336 523.952 7.13177 524.554C7.10768 525.346 7.0595 526.406 7.01132 527.604C6.78759 533.386 6.55354 542.628 9.12467 544.149Z" fill="#EA9A81"/>
<path d="M75.327 298.687C75.327 298.687 21.8772 306.603 5.75516 355.792C-5.90956 391.381 3.37678 501.472 5.75516 508.428C8.13353 515.384 34.6915 515.15 40.7355 508.428C46.7796 501.706 75.327 298.687 75.327 298.687Z" fill="#0E2780"/>
<path d="M167.312 501.105C165.936 523.911 163.358 553.512 158.57 589.707C154.498 620.512 150.034 678.653 145.859 706.409L140.947 706.485C122.76 706.778 104.342 707.132 85.9485 707.518L88.8949 610.741V610.335L92.0511 535.885L92.9563 500.089C93.1319 500.007 95.9921 498.651 100.501 496.771C103.943 495.343 108.29 493.612 113.154 491.891C129.647 486.06 151.82 480.422 161.919 487.564C164.507 489.402 166.301 492.076 166.999 495.801C167.047 496.052 167.092 496.303 167.127 496.561C167.341 498.066 167.403 499.588 167.312 501.105Z" fill="#4ECEE7"/>
<path d="M101.434 473.964C101.303 479.237 101.09 485.261 100.769 492.027C100.694 493.565 100.613 495.142 100.528 496.76C100.473 497.793 100.415 498.846 100.36 499.913C99.0381 523.115 96.436 553.752 91.4314 591.603C90.6054 597.843 89.7621 604.093 88.9119 610.316C88.9119 610.409 88.8844 610.499 88.8775 610.585C85.5629 634.74 82.1038 685.781 78.8133 707.647C74.7013 707.735 70.5951 707.825 66.4946 707.919C63.4428 707.981 60.3989 708.048 57.3631 708.119C44.4043 708.408 31.528 708.714 18.8135 709.014L23.4085 573.271L24.9161 537.75L25.6905 507.117L25.7146 506.181L25.8316 501.493V500.908L25.9521 496.024L25.9762 494.991L26.0244 493.156L26.7678 463.745L28.1446 463.428L43.4922 459.863L71.8675 453.278L80.9645 451.165L101.344 446.436C101.344 446.436 101.444 448.26 101.516 451.884C101.654 456.445 101.688 463.814 101.434 473.964Z" fill="#4ECEE7"/>
<path d="M88.465 611.053C88.4133 610.646 83.247 570.094 79.361 555.558C75.5129 541.168 57.6768 528.663 57.4944 528.536L58.0279 527.765C58.2103 527.892 76.3287 540.596 80.2662 555.3C84.1694 569.887 89.3426 610.509 89.3943 610.918L88.465 611.053Z" fill="#09042D"/>
<path d="M88.196 294.078L92.9149 279.246L94.2917 274.927L102.342 249.539L103.406 274.793L104.043 289.937L104.242 294.735C104.38 297.995 106.418 298.676 108.896 301.509C109.901 302.655 116.33 309.608 109.033 312.75C99.9433 316.664 82.9505 310.737 76.49 302.975C76.5554 302.979 86.6712 298.869 88.196 294.078Z" fill="#EA9A81"/>
<path d="M105.233 285.908C117.869 283.979 126.272 270.369 124.004 255.509C121.735 240.648 109.653 230.165 97.0176 232.094C84.3821 234.023 75.9782 247.634 78.2468 262.494C80.5155 277.354 92.5976 287.837 105.233 285.908Z" fill="#EA9A81"/>
<path d="M125.954 240.628C125.954 240.628 111.808 253.9 113.673 261.366C115.539 268.831 115.05 271.757 106.789 275.739C98.5288 279.721 105.822 286.192 94.8115 286.657C83.8008 287.122 64.9906 276.479 70.3187 253.614C72.9518 242.297 77.1682 234.395 77.1682 234.395L125.954 240.628Z" fill="#09042D"/>
<path d="M167.313 501.104C167.313 501.104 71.2826 495.597 25.7079 507.124L25.0195 493.494L88.9191 473.641L140.51 474.973L156.343 478.518L167.529 496.64L167.313 501.104Z" fill="#09042D"/>
<path d="M23.0608 335.069C23.0608 335.069 31.5142 296.926 83.2189 296.926C173.322 296.926 148.048 374.025 156.384 496.63C156.384 496.63 98.2946 483.42 14.2322 501.002C14.2322 501.002 6.05076 434.61 16.6416 378.469C19.4158 363.675 18.9098 347.952 23.0608 335.069Z" fill="#0E2780"/>
<path d="M69.6989 257.064C69.6989 257.064 65.5686 240.715 73.8946 232.403C82.2206 224.091 108.872 221.795 121.201 232.403C133.53 243.011 132.955 244.012 128.869 245.947C124.784 247.881 128.439 252.979 121.559 254.118C114.678 255.257 119.562 267.645 107.657 265.18C95.7509 262.716 69.6989 257.064 69.6989 257.064Z" fill="#09042D"/>
<path d="M117.604 261.676C116 259.459 113.054 258.795 111.023 260.189C108.992 261.583 108.641 264.516 110.245 266.729C111.849 268.942 114.795 269.61 116.826 268.216C118.857 266.822 119.208 263.882 117.604 261.676Z" fill="#EA9A81"/>
<path d="M114.066 269.184C112.947 269.184 111.02 268.716 109.571 265.897C109.551 265.858 109.547 265.814 109.56 265.773C109.573 265.731 109.602 265.697 109.639 265.676C109.658 265.666 109.679 265.66 109.7 265.659C109.722 265.657 109.743 265.66 109.763 265.666C109.784 265.673 109.802 265.684 109.818 265.698C109.834 265.712 109.847 265.729 109.856 265.749C111.887 269.69 114.754 268.798 114.875 268.76C114.895 268.753 114.916 268.75 114.937 268.752C114.959 268.753 114.98 268.758 114.999 268.767C115.018 268.777 115.035 268.79 115.049 268.806C115.063 268.822 115.074 268.84 115.081 268.86C115.088 268.881 115.091 268.902 115.09 268.924C115.088 268.945 115.083 268.966 115.073 268.985C115.063 269.004 115.05 269.021 115.034 269.036C115.017 269.05 114.998 269.06 114.978 269.067C114.681 269.149 114.374 269.189 114.066 269.184Z" fill="#09042D"/>
<path d="M28.3407 484.576C21.8802 417.606 31.8824 349.762 31.9822 349.084L32.5743 349.173C32.4744 349.862 22.4825 417.623 28.9361 484.517L28.3407 484.576Z" fill="#09042D"/>
<path d="M459.271 713.77C440.908 712.961 421.551 712.049 401.047 711.065C396.208 679.482 390.776 615.221 385.903 578.354C381.118 542.155 378.53 512.561 377.16 489.752C377.06 488.235 377.112 486.712 377.315 485.205C377.349 484.947 377.394 484.699 377.442 484.448C378.131 480.713 379.934 478.042 382.523 476.208C392.618 469.059 414.801 474.704 431.298 480.534C436.158 482.255 440.519 483.976 443.937 485.415C448.594 487.353 451.492 488.736 451.492 488.736L452.401 524.533L455.557 598.995L455.574 599.384L459.271 713.77Z" fill="#CFD2E1"/>
<path d="M526.437 716.407C508.222 715.805 488.92 715.031 468.368 714.167C464.317 687.726 459.825 630.156 455.595 599.251C455.595 599.168 455.574 599.086 455.56 598.999C454.707 592.773 453.867 586.519 453.041 580.275C448.033 542.414 445.431 511.781 444.113 488.589C444.058 487.519 443.996 486.469 443.94 485.433C443.856 483.815 443.775 482.236 443.7 480.697C443.376 473.93 443.166 467.91 443.035 462.637C442.994 460.969 442.96 459.376 442.932 457.859C442.67 442.773 443.087 435.122 443.087 435.122L470.77 441.545H470.788L517.667 452.421L518.41 481.836L518.606 489.58L518.765 495.776L519.539 526.409L526.437 716.407Z" fill="#CFD2E1"/>
<path d="M456.008 599.705L455.075 599.584C455.127 599.175 460.304 558.553 464.203 543.966C468.141 529.245 486.259 516.541 486.442 516.431L486.978 517.202C486.796 517.326 468.956 529.837 465.112 544.224C461.226 558.735 456.06 599.295 456.008 599.705Z" fill="#09042D"/>
<path d="M456.273 282.727L451.558 267.895L450.181 263.579L442.11 238.191L441.05 263.445L440.413 278.589L440.21 283.387C440.075 286.647 438.038 287.332 435.556 290.161C434.551 291.307 428.122 298.26 435.418 301.403C444.509 305.316 461.501 299.389 467.962 291.627C467.917 291.627 457.798 287.518 456.273 282.727Z" fill="#EA9A81"/>
<path d="M466.252 251.166C468.521 236.306 460.117 222.695 447.481 220.766C434.846 218.837 422.764 229.32 420.495 244.181C418.226 259.041 426.63 272.652 439.266 274.581C451.901 276.51 463.983 266.027 466.252 251.166Z" fill="#EA9A81"/>
<path d="M430.307 238.192C417.066 238.674 410.647 231.232 410.492 224.341C410.296 215.503 415.999 207.676 422.659 210.959C429.319 214.243 426.445 206.192 432.847 205.335C444.798 203.738 447.038 212.019 456.82 212.422C469.717 212.952 484.425 233.893 473.617 249.178C473.617 249.178 440.76 237.81 430.307 238.192Z" fill="#09042D"/>
<path d="M418.519 229.276C418.519 229.276 432.661 242.548 430.796 250.014C428.93 257.48 429.402 260.405 437.68 264.387C445.958 268.37 438.647 274.841 449.654 275.305C460.662 275.77 474.154 263.097 474.151 242.263C474.151 230.646 467.301 223.043 467.301 223.043L418.519 229.276Z" fill="#09042D"/>
<path d="M423.657 249.685C425.258 247.472 428.208 246.804 430.238 248.202C432.269 249.599 432.62 252.525 431.016 254.742C429.412 256.958 426.466 257.622 424.432 256.225C422.398 254.828 422.053 251.902 423.657 249.685Z" fill="#EA9A81"/>
<path d="M478.921 254.933C478.843 254.935 478.766 254.911 478.703 254.863C478.64 254.815 478.596 254.748 478.577 254.671C477.937 251.856 475.183 250.252 475.156 250.235C475.108 250.218 475.065 250.19 475.029 250.154C474.993 250.119 474.965 250.075 474.948 250.027C474.931 249.98 474.924 249.929 474.929 249.878C474.934 249.828 474.95 249.779 474.975 249.735C475.001 249.692 475.036 249.654 475.078 249.626C475.12 249.597 475.168 249.578 475.218 249.571C475.268 249.563 475.32 249.566 475.368 249.58C475.417 249.595 475.462 249.619 475.5 249.653C475.624 249.722 478.532 251.422 479.241 254.52C479.26 254.607 479.244 254.699 479.196 254.775C479.149 254.85 479.074 254.905 478.987 254.926L478.921 254.933Z" fill="#09042D"/>
<path d="M475.341 248.648C475.25 248.651 475.161 248.617 475.095 248.554C475.028 248.492 474.989 248.405 474.987 248.314C474.984 248.223 475.018 248.134 475.08 248.068C475.143 248.001 475.229 247.962 475.321 247.959C475.355 247.959 478.931 247.705 479.451 245.01C479.45 244.958 479.46 244.907 479.481 244.861C479.503 244.814 479.534 244.772 479.573 244.739C479.612 244.706 479.658 244.682 479.708 244.669C479.758 244.656 479.81 244.655 479.86 244.664C479.911 244.674 479.958 244.695 480 244.726C480.041 244.756 480.075 244.795 480.099 244.841C480.123 244.886 480.137 244.936 480.139 244.987C480.141 245.039 480.132 245.09 480.112 245.137C479.503 248.348 475.537 248.62 475.369 248.631L475.341 248.648Z" fill="#09042D"/>
<path d="M424.666 210.436C424.423 210.433 424.182 210.397 423.95 210.329C422.974 210.011 422.057 209.535 421.234 208.921C419.761 207.926 418.48 207.066 415.727 207.937C415.682 207.961 415.633 207.976 415.582 207.979C415.531 207.982 415.48 207.974 415.433 207.955C415.386 207.936 415.343 207.907 415.308 207.869C415.274 207.832 415.248 207.788 415.233 207.739C415.217 207.69 415.213 207.639 415.22 207.589C415.227 207.538 415.245 207.49 415.273 207.447C415.3 207.404 415.337 207.369 415.381 207.342C415.424 207.315 415.473 207.299 415.524 207.293C418.594 206.326 420.126 207.362 421.606 208.36C422.37 208.936 423.223 209.382 424.132 209.682C424.36 209.761 424.604 209.784 424.843 209.752C425.082 209.719 425.31 209.63 425.509 209.493C426.989 208.491 427.337 205.132 427.34 205.097C427.349 205.006 427.393 204.922 427.464 204.863C427.535 204.805 427.626 204.777 427.717 204.786C427.808 204.794 427.892 204.839 427.951 204.91C428.009 204.98 428.037 205.071 428.028 205.163C428.028 205.314 427.643 208.873 425.905 210.05C425.542 210.305 425.109 210.439 424.666 210.436Z" fill="#09042D"/>
<path d="M455.809 211.328C451.128 211.328 447.483 208.017 447.314 207.862C447.25 207.8 447.212 207.717 447.208 207.628C447.204 207.54 447.235 207.453 447.293 207.387C447.355 207.322 447.439 207.283 447.528 207.28C447.618 207.276 447.705 207.307 447.772 207.366C447.813 207.407 452.153 211.338 457.213 210.543C457.293 210.546 457.369 210.577 457.429 210.63C457.488 210.683 457.527 210.755 457.54 210.834C457.552 210.913 457.536 210.994 457.495 211.063C457.455 211.131 457.391 211.184 457.316 211.211C456.817 211.288 456.313 211.327 455.809 211.328Z" fill="#09042D"/>
<path d="M427.196 257.192C426.888 257.197 426.58 257.157 426.283 257.075C426.263 257.069 426.243 257.058 426.226 257.045C426.209 257.031 426.195 257.014 426.185 256.994C426.175 256.975 426.169 256.954 426.167 256.932C426.166 256.91 426.169 256.888 426.175 256.868C426.182 256.847 426.194 256.828 426.208 256.812C426.223 256.796 426.24 256.782 426.26 256.773C426.28 256.764 426.301 256.759 426.323 256.758C426.345 256.757 426.366 256.761 426.387 256.768C426.507 256.806 429.374 257.698 431.402 253.757C431.422 253.719 431.457 253.69 431.498 253.677C431.539 253.665 431.583 253.668 431.622 253.688C431.641 253.697 431.658 253.71 431.672 253.727C431.685 253.743 431.696 253.761 431.702 253.782C431.709 253.802 431.711 253.823 431.709 253.844C431.707 253.866 431.701 253.886 431.691 253.905C430.242 256.724 428.314 257.192 427.196 257.192Z" fill="#09042D"/>
<path d="M377.157 489.753C377.157 489.753 473.187 484.246 518.765 495.776L519.453 482.143L455.55 462.29L403.959 463.622L388.109 467.17L376.926 485.289L377.157 489.753Z" fill="#09042D"/>
<path d="M510.239 323.716C510.239 323.716 501.789 285.566 450.084 285.583C359.978 285.583 385.252 362.682 376.916 485.288C376.916 485.288 435.009 472.081 519.068 489.659C519.068 489.659 527.253 423.267 516.679 367.126C513.888 352.339 514.394 336.599 510.239 323.716Z" fill="#ED3944"/>
<path d="M379.298 411.328L378.954 410.777C395.94 400.266 418.044 372.572 418.264 372.293L418.773 372.696C418.55 372.992 396.377 400.758 379.298 411.328Z" fill="#09042D"/>
<path d="M521.167 409.61C520.789 400.293 514.855 343.356 514.796 342.781L515.443 342.716C515.502 343.287 521.436 400.244 521.818 409.586L521.167 409.61Z" fill="#09042D"/>
<path d="M468.816 463.263C472.922 459.24 455.777 456.035 455.777 456.035C455.777 456.035 471.641 459.336 475.572 456.331C478.704 453.922 464.341 448.759 459.34 447.19C459.34 447.145 459.371 447.1 459.385 447.055C464.403 448.164 479.995 451.736 482.236 448.494C484.776 444.818 464.496 439.631 461.453 438.926C461.455 438.908 461.455 438.891 461.453 438.874C495.184 443.19 472.388 432.241 458.073 429.216C460.576 427.309 465.301 422.724 464.31 421.065C463.184 419.155 456.108 421.571 454.063 422.442C449.348 424.421 439.198 426.428 434.52 428.5C432.493 429.395 430.517 451.286 430.517 451.286C430.517 451.286 436.176 455.326 445.934 459.071C446.5 459.395 447.103 459.652 447.73 459.835C448.553 460.083 449.647 460.431 450.893 460.82C456.862 462.675 466.499 465.532 468.816 463.263Z" fill="#EA9A81"/>
<path d="M43.4853 459.838C39.3756 455.818 56.5199 452.61 56.5199 452.61C56.5199 452.61 40.6594 455.907 36.7287 452.903C33.5966 450.493 47.9598 445.33 52.9609 443.764C52.9609 443.72 52.9299 443.671 52.9127 443.627C47.8978 444.735 32.3059 448.308 30.0617 445.065C27.5216 441.393 47.8049 436.202 50.8441 435.497C50.8458 435.48 50.8458 435.462 50.8441 435.445C17.1132 439.761 39.9125 428.813 54.2275 425.791C51.7218 423.88 46.9995 419.299 47.9873 417.637C49.1128 415.726 56.1894 418.143 58.2339 419.013C62.9528 420.996 73.0997 422.999 77.7773 425.071C79.808 425.97 81.7802 447.857 81.7802 447.857C81.7802 447.857 76.1251 451.898 66.3672 455.642C65.7998 455.968 65.1955 456.224 64.5671 456.407C63.7445 456.654 62.6499 457.002 61.4074 457.391C55.4184 459.253 45.7982 462.106 43.4853 459.838Z" fill="#EA9A81"/>
<path d="M352.684 514.906C351.308 537.709 348.723 567.306 343.935 603.508C340.466 629.749 336.707 683.296 333.1 707.685L330.825 707.568C320.792 707.059 309.901 706.666 298.305 706.37L291.253 706.202C285.007 706.069 278.582 705.961 271.978 705.878L274.27 624.535V624.139C274.27 624.139 274.27 624.115 274.27 624.105L277.423 549.676L278.325 513.88C278.459 513.818 281.33 512.455 285.877 510.559C289.294 509.13 293.662 507.396 298.515 505.678C315.012 499.851 337.199 494.206 347.298 501.351C349.89 503.183 351.683 505.86 352.378 509.585C352.43 509.832 352.475 510.087 352.509 510.345C352.721 511.856 352.78 513.384 352.684 514.906Z" fill="#ED3944"/>
<path d="M286.806 487.764C286.675 493.037 286.462 499.057 286.142 505.827C286.066 507.367 285.985 508.946 285.897 510.563C285.847 511.598 285.79 512.65 285.725 513.719C284.411 536.915 281.808 567.551 276.804 605.406C275.978 611.638 275.139 617.868 274.288 624.095C274.288 624.095 274.288 624.116 274.288 624.13C274.288 624.209 274.267 624.295 274.25 624.378C271.717 642.888 269.087 688.425 266.523 705.807C250.143 705.635 232.792 705.607 214.773 705.683L204.926 705.735L210.306 551.564L211.084 520.93V520.903L211.238 514.707L211.438 506.966L212.182 477.555L273.854 463.244L286.758 460.249C286.758 460.249 286.823 461.433 286.885 463.791C286.989 468.031 287.092 476.041 286.806 487.764Z" fill="#ED3944"/>
<path d="M273.833 624.856C273.782 624.446 268.615 583.897 264.729 569.361C260.881 554.974 243.045 542.463 242.863 542.339L243.4 541.568C243.582 541.692 261.7 554.396 265.638 569.103C269.538 583.69 274.714 624.315 274.766 624.722L273.833 624.856Z" fill="#09042D"/>
<path d="M273.565 307.876L278.284 293.045L279.661 288.729L287.732 263.341L288.792 288.594L289.429 303.739L289.629 308.537C289.766 311.793 291.804 312.478 294.285 315.307C295.287 316.453 301.717 323.406 294.42 326.549C285.33 330.462 268.337 324.535 261.876 316.773C261.924 316.777 272.03 312.671 273.565 307.876Z" fill="#EA9A81"/>
<path d="M290.603 299.701C303.238 297.772 311.642 284.162 309.374 269.301C307.105 254.441 295.023 243.958 282.387 245.887C269.752 247.816 261.348 261.427 263.617 276.287C265.885 291.147 277.967 301.63 290.603 299.701Z" fill="#EA9A81"/>
<path d="M352.681 514.903C352.681 514.903 256.651 509.396 211.077 520.926L210.388 507.293L274.288 487.439L325.882 488.771L341.715 492.32L352.901 510.442L352.681 514.903Z" fill="#09042D"/>
<path d="M219.599 348.868C219.599 348.868 228.052 310.731 279.757 310.734C369.863 310.734 344.589 387.834 352.925 510.442C352.925 510.442 294.832 497.232 210.774 514.81C210.774 514.81 202.589 448.419 213.162 392.294C215.954 377.467 215.448 361.754 219.599 348.868Z" fill="#9094A8"/>
<path d="M289.894 311.109C289.894 311.109 320.568 309.732 340.535 332.449C352.926 346.561 371.113 400.155 385.731 405.256L438.028 424.62C438.028 424.62 448.333 443.589 431.612 457.023C431.612 457.023 384.024 471.231 336.752 451.925C332.123 450.036 315.25 425.481 315.25 425.481L289.894 311.109Z" fill="#9094A8"/>
<path d="M263.153 312.345C263.153 312.345 234.241 312.785 212.753 334.07C204.881 341.866 193.02 355.066 183.496 365.85C173.26 377.466 160.203 386.248 145.584 391.347L74.4628 421.292C74.4628 421.292 64.8254 438.216 81.5463 451.65C81.5463 451.65 158.542 455.292 205.8 435.986C210.43 434.096 212.722 431.184 212.722 431.184L263.153 312.345Z" fill="#9094A8"/>
<path d="M208.67 434.761L208.023 434.737C208.402 425.395 214.339 368.442 214.398 367.867L215.045 367.932C214.983 368.517 209.042 425.443 208.67 434.761Z" fill="#09042D"/>
<path d="M300.901 236.625C291.879 232.567 272.46 224.431 258.269 239.052C239.521 258.375 252.177 288.148 232.103 294.171C212.03 300.195 197.553 317.105 211.531 330.311C225.509 343.518 197.763 378.302 252.146 382.15C306.528 385.999 297.4 346.939 298.299 333.75C299.197 320.56 328.443 330.886 327.872 315.404C327.3 299.923 291.129 290.681 299.61 273.368C308.091 256.055 314.896 242.917 300.901 236.625Z" fill="#09042D"/>
<path d="M306.184 274.834C304.58 272.621 301.634 271.953 299.603 273.351C297.573 274.748 297.221 277.674 298.825 279.891C300.429 282.107 303.376 282.771 305.406 281.374C307.437 279.977 307.788 277.051 306.184 274.834Z" fill="#EA9A81"/>
<path d="M302.663 282.342C301.544 282.342 299.617 281.874 298.168 279.055C298.155 279.036 298.147 279.014 298.143 278.992C298.139 278.97 298.14 278.947 298.146 278.925C298.152 278.903 298.162 278.882 298.176 278.865C298.19 278.847 298.208 278.832 298.228 278.822C298.248 278.811 298.27 278.805 298.293 278.804C298.316 278.803 298.338 278.806 298.36 278.814C298.381 278.822 298.4 278.834 298.416 278.85C298.432 278.866 298.445 278.885 298.453 278.907C300.487 282.861 303.441 281.929 303.472 281.918C303.513 281.905 303.557 281.909 303.596 281.928C303.635 281.947 303.664 281.981 303.678 282.022C303.691 282.062 303.688 282.106 303.668 282.144C303.649 282.182 303.615 282.211 303.575 282.225C303.278 282.307 302.971 282.347 302.663 282.342Z" fill="#09042D"/>
<path d="M300.901 236.626C300.901 236.626 310.087 238.381 314.1 249.072C318.114 259.763 315.508 268.292 300.901 268.619C286.293 268.946 300.901 236.626 300.901 236.626Z" fill="#09042D"/>
<path d="M241.2 287.999L240.691 287.311C244.133 284.781 244.271 277.363 244.443 268.776C244.694 256.24 245.011 240.635 256.255 233.888C274.893 222.706 298.278 236.122 298.512 236.26L298.075 237.003C297.848 236.869 274.893 223.707 256.696 234.625C245.861 241.127 245.551 256.467 245.303 268.793C245.124 277.604 244.973 285.221 241.2 287.999Z" fill="#09042D"/>
<path d="M287.945 373.498L287.508 372.761C287.67 372.662 303.875 362.835 302.078 346.396C301.001 336.545 305.837 335.798 312.531 334.762C317.804 333.947 324.368 332.935 330.732 327.259C333.1 325.146 334.14 322.678 333.83 319.921C332.453 307.998 306.821 293.972 306.559 293.831L306.972 293.077C311.574 295.659 315.998 298.544 320.217 301.713C329.197 308.514 334.057 314.606 334.673 319.821C335.017 322.874 333.895 325.593 331.307 327.899C324.767 333.75 318.049 334.783 312.662 335.613C305.978 336.645 301.944 337.268 302.932 346.303C304.79 363.296 288.114 373.398 287.945 373.498Z" fill="#09042D"/>
<path d="M237.587 395.021C236.578 389.359 252.387 396.707 252.387 396.707C252.387 396.707 237.559 390.168 236.107 385.452C234.947 381.666 249.647 385.796 254.628 387.438C254.628 387.393 254.655 387.345 254.666 387.301C249.94 385.29 235.174 379.143 235.229 375.202C235.294 370.728 254.82 378.3 257.705 379.48C257.714 379.466 257.722 379.451 257.729 379.436C227.75 363.348 252.68 367.688 266.089 373.54C265.16 370.531 263.983 364.061 265.745 363.279C267.772 362.378 272.13 368.442 273.297 370.339C275.985 374.689 283.082 382.22 285.688 386.619C286.817 388.529 285.77 407.494 285.77 407.494C285.77 407.494 268.764 407.494 258.644 404.879C257.993 404.815 257.352 404.674 256.734 404.459C255.922 404.183 254.827 403.829 253.592 403.426C247.644 401.485 238.155 398.222 237.587 395.021Z" fill="#EA9A81"/>
<path d="M439.948 285.958C439.948 285.958 406.344 289.31 393.526 307.801C387.214 316.904 373.715 337.721 364.208 348.512C353.972 360.132 341.058 363.766 326.44 368.867L281.398 380.766C281.398 380.766 276.58 402.743 282.287 411.055C282.287 411.055 336.17 426.145 383.059 405.927C394.198 401.125 451.151 350.811 451.151 350.811L439.948 285.958Z" fill="#ED3944"/>
<path d="M351.098 457.103C339.701 454.742 331.382 447.187 331.3 447.121L331.592 446.805C331.675 446.88 339.908 454.356 351.184 456.693L351.098 457.103Z" fill="#09042D"/>
<path d="M297.194 461.374C300.112 456.421 282.737 457.788 282.737 457.788C282.737 457.788 298.915 456.848 301.923 452.924C304.332 449.796 289.109 448.532 283.873 448.322V448.178C289.005 447.94 304.99 447.335 306.311 443.621C307.809 439.411 286.875 439.68 283.753 439.79C283.755 439.773 283.755 439.755 283.753 439.738C317.463 435.126 292.585 430.49 277.977 431.295C279.898 428.8 283.257 423.148 281.88 421.799C280.297 420.247 274.091 424.422 272.339 425.781C268.302 428.92 259.023 433.498 255.047 436.713C253.326 438.11 247.685 456.249 247.685 456.249C247.685 456.249 263.621 462.187 274.019 463.264C274.651 463.43 275.3 463.522 275.953 463.536C276.814 463.56 277.96 463.612 279.261 463.663C285.512 463.914 295.548 464.166 297.194 461.374Z" fill="#EA9A81"/>
<path d="M107.657 297.568C107.657 297.568 144.141 299.2 164.204 327.585C170.599 336.627 188.122 380.973 200.042 390.855L261.112 432.719C261.112 432.719 257.963 454.999 249.709 460.788C249.709 460.788 187.472 451.774 150.581 416.463C141.821 408.075 112.482 345.401 112.482 345.401L107.657 297.568Z" fill="#0E2780"/>
<path d="M676.047 550.365C671.483 553.056 672.74 537.027 672.74 537.027C672.74 537.027 671.876 551.938 668.265 554.715C665.384 556.929 664.217 542.903 664.021 538.077H663.89C663.674 542.806 663.116 557.541 659.691 558.76C655.816 560.136 656.057 540.862 656.156 537.97H656.108C651.864 569.044 647.586 546.114 648.326 532.646C646.027 534.418 640.816 537.516 639.573 536.246C638.145 534.787 641.983 529.066 643.242 527.452C646.137 523.728 650.353 515.174 653.317 511.509C654.604 509.919 674.557 513.405 674.557 513.405C674.557 513.405 676.798 519.408 677.792 528.99C677.948 529.573 678.032 530.173 678.044 530.777C678.068 531.568 678.116 532.625 678.164 533.826C678.388 539.598 678.622 548.847 676.047 550.365Z" fill="#EA9A81"/>
<path d="M613.518 321.52C613.518 321.52 667.587 318.66 678.292 376.172C685.141 413 681.799 507.691 679.421 514.647C677.042 521.604 650.484 521.366 644.437 514.647C638.389 507.929 613.518 321.52 613.518 321.52Z" fill="#0E2780"/>
<path d="M603.316 718.104C591.995 718.018 580.255 717.839 568.036 717.57C562.419 717.446 556.699 717.305 550.878 717.147C545.749 684.38 539.382 614.718 533.799 572.524C529.383 539.137 526.998 511.873 525.738 490.846C525.643 489.448 525.69 488.043 525.879 486.654C525.914 486.413 525.952 486.186 525.996 485.966C526.64 482.524 528.292 480.066 530.677 478.393C539.97 471.802 560.433 477.017 575.639 482.379C580.114 483.963 584.141 485.563 587.294 486.878C591.582 488.671 594.257 489.941 594.257 489.941L595.09 522.925L597.998 591.53V591.919L603.316 718.104Z" fill="#09042D"/>
<path d="M666.183 717.529L664.362 717.584C658.383 717.754 652.302 717.886 646.12 717.98C636.249 718.142 626.095 718.201 615.597 718.183H613.088C608.761 690.6 602.39 623.768 598.012 591.778C598.012 591.692 597.988 591.61 597.974 591.531C597.192 585.794 596.42 580.057 595.658 574.321C591.042 539.43 588.643 511.189 587.428 489.808C587.373 488.823 587.32 487.853 587.27 486.896C587.191 485.409 587.115 483.956 587.053 482.535C586.75 476.295 586.558 470.739 586.437 465.879C586.021 449.062 586.485 440.519 586.485 440.519L632.056 451.096L655.228 456.476L655.916 483.585L656.098 490.723L656.243 496.44L656.615 511.154L656.825 519.388L656.959 524.688L658.387 558.419L666.183 717.529Z" fill="#09042D"/>
<path d="M598.408 592.198L597.551 592.088C597.596 591.713 602.369 554.268 605.963 540.824C609.594 527.252 626.294 515.543 626.463 515.426L626.955 516.138C626.79 516.252 610.344 527.786 606.799 541.048C603.22 554.437 598.456 591.823 598.408 592.198Z" fill="#09042D"/>
<path d="M525.728 490.851C525.728 490.851 614.248 485.777 656.257 496.399L656.88 483.836L597.981 465.535L550.424 466.76L535.816 470.03L525.49 486.734L525.728 490.851Z" fill="#09042D"/>
<path d="M648.398 337.801C648.398 337.801 644.017 318.891 596.356 318.895C513.299 318.895 533.19 373.735 525.504 486.734C525.504 486.734 579.05 474.559 656.535 490.764C656.535 490.764 664.08 429.567 654.332 377.831C651.758 364.17 652.226 349.679 648.398 337.801Z" fill="#0E2780"/>
<path d="M656.838 490.792L656.242 490.737C662.693 423.843 654.129 378.34 654.043 377.886L654.632 377.772C654.714 378.227 663.295 423.815 656.838 490.792Z" fill="#09042D"/>
<path d="M686.36 434.689C690.469 430.665 673.325 427.461 673.325 427.461C673.325 427.461 689.185 430.758 693.116 427.753C696.248 425.344 681.885 420.181 676.884 418.615C676.901 418.567 676.915 418.522 676.932 418.477C681.947 419.585 697.539 423.158 699.783 419.916C702.323 416.24 682.04 411.053 678.997 410.347V410.296C712.745 414.612 689.929 403.663 675.614 400.658C678.116 398.748 682.842 394.167 681.854 392.504C680.725 390.594 673.652 393.01 671.604 393.881C666.889 395.86 656.738 397.867 652.061 399.939C650.033 400.837 648.058 422.724 648.058 422.724C648.058 422.724 653.74 426.738 663.485 430.472C664.051 430.796 664.654 431.053 665.281 431.236C666.107 431.484 667.202 431.832 668.444 432.221C674.423 434.104 684.029 436.957 686.36 434.689Z" fill="#EA9A81"/>
<path d="M466.688 287.194C466.688 287.194 495.601 287.635 517.089 308.92C524.96 316.716 536.821 329.916 546.328 340.696C556.562 352.314 569.619 361.097 584.237 366.197L655.358 396.142C655.358 396.142 664.995 413.062 648.278 426.5C648.278 426.5 571.282 430.141 524.024 410.836C519.395 408.946 517.102 406.017 517.102 406.017L466.688 287.194Z" fill="#ED3944"/>
<path d="M129.288 368.3L128.876 368.425L136.926 395.005L137.338 394.881L129.288 368.3Z" fill="#09042D"/>
<path d="M521.278 409.606C520.789 395.839 514.965 356.711 514.907 356.315L515.334 356.253C515.392 356.645 521.216 395.804 521.708 409.603L521.278 409.606Z" fill="#09042D"/>
<path d="M392.742 306.492C393.737 301.285 400.879 309.015 400.879 309.015C400.879 309.015 394.952 302.586 395.255 298.036C395.495 294.408 402.104 298.724 405.856 301.77L405.935 301.663C402.527 298.376 398.018 294.012 399.35 290.649C400.875 286.825 409.033 293.967 411.125 295.943L411.16 295.912C404.011 286.798 410.678 284.134 420.298 293.585C420.487 290.687 421.603 284.729 423.379 284.636C425.42 284.526 427.165 291.193 427.557 293.2C428.442 297.829 432.076 306.647 432.871 311.294C433.216 313.311 417.417 325.988 417.417 325.988C417.417 325.988 411.432 323.706 403.581 318.123C403.041 317.853 402.535 317.52 402.073 317.131C401.464 316.625 400.638 315.965 399.705 315.207C395.224 311.559 392.184 309.428 392.742 306.492Z" fill="#EA9A81"/>
<path d="M612.41 305.299C612.41 305.299 600.132 297.958 570.029 313.446C551.098 323.19 510.484 344.806 491.873 336.356C473.672 328.095 431.798 307.037 431.798 307.037C431.798 307.037 411.187 311.25 411.982 327.634C411.982 327.634 435.897 369.182 479.585 386.698C504.453 396.679 584.974 356.45 581.449 354.447L612.41 305.299Z" fill="#0E2780"/>
<path d="M608.302 283.75C610.393 270.053 602.646 257.508 590.999 255.73C579.352 253.952 568.215 263.614 566.124 277.311C564.033 291.009 571.78 303.554 583.427 305.332C595.074 307.11 606.211 297.448 608.302 283.75Z" fill="#EA9A81"/>
<path d="M569.034 282.38C570.511 280.339 573.227 279.726 575.102 281.003C576.978 282.28 577.295 284.985 575.818 287.03C574.342 289.074 571.623 289.684 569.75 288.407C567.878 287.13 567.558 284.424 569.034 282.38Z" fill="#EA9A81"/>
<path d="M572.298 289.297C572.013 289.302 571.729 289.266 571.454 289.19C571.417 289.177 571.386 289.15 571.369 289.115C571.351 289.079 571.349 289.038 571.361 289.001C571.374 288.963 571.401 288.933 571.437 288.915C571.472 288.898 571.513 288.895 571.551 288.908C571.661 288.946 574.304 289.765 576.177 286.13C576.195 286.095 576.227 286.069 576.264 286.057C576.302 286.045 576.343 286.048 576.378 286.067C576.413 286.085 576.44 286.116 576.452 286.154C576.464 286.192 576.46 286.233 576.442 286.268C575.103 288.867 573.33 289.297 572.298 289.297Z" fill="#09042D"/>
<path d="M573.904 247.157C573.904 247.157 565.434 248.775 561.737 258.633C558.04 268.49 560.44 276.348 573.904 276.648C587.369 276.947 573.904 247.157 573.904 247.157Z" fill="#09042D"/>
<path d="M573.905 247.158C573.905 247.158 587.146 229.29 609.876 237.747C632.607 246.204 631.216 278.101 642.874 286.199C654.532 294.298 658.425 310.95 642.874 310.95C627.323 310.95 630.335 318.953 613.518 321.521C596.7 324.088 587.393 315.442 576.307 319.934C565.221 324.426 558.085 312.272 568.129 303.815C578.173 295.358 581.27 282.665 571.502 270.649C561.734 258.633 573.905 247.158 573.905 247.158Z" fill="#09042D"/>
</g>
<path d="M170.32 43.4635C175.053 38.8645 177.993 32.4308 177.993 25.3104C177.993 11.3319 166.661 0 152.683 0C138.704 0 127.372 11.3319 127.372 25.3104C127.372 35.4815 133.372 44.2513 142.025 48.2742C138.61 49.7249 135.316 51.4862 132.189 53.5465C121.025 60.8998 112.577 71.661 108.122 84.2049C103.666 96.7488 103.445 110.394 107.491 123.08C107.787 124.009 108.105 124.929 108.444 125.839L93.9646 155.999L123.566 148.775C125.739 150.849 128.071 152.772 130.549 154.525C141.468 162.247 154.62 166.234 168.017 165.884C181.414 165.535 194.33 160.867 204.814 152.586C213.293 145.889 219.809 137.122 223.763 127.2C224.145 126.241 224.506 125.27 224.868 124.3C226.023 121.195 227.179 118.089 229.027 115.35C229.65 114.426 230.332 113.524 231.051 112.739C234.141 109.368 238.301 107.149 242.84 106.448C247.378 105.748 252.023 106.61 256.002 108.891C259.981 111.171 263.056 114.733 264.716 118.986C266.377 123.238 266.522 127.926 265.13 132.27C263.737 136.614 260.889 140.353 257.059 142.867C253.228 145.382 248.646 146.52 244.073 146.093C242.876 145.981 241.7 145.764 240.555 145.447C235.198 143.966 228.774 143.725 224.9 147.68C221.025 151.635 221.08 158.097 225.902 160.847C230.869 163.68 236.421 165.449 242.2 165.989C251.348 166.844 260.512 164.568 268.172 159.539C270.011 158.332 271.736 156.984 273.335 155.512L291.832 160.026L283.052 141.738C283.523 140.63 283.944 139.497 284.314 138.343C287.1 129.655 286.808 120.281 283.488 111.776C280.826 104.959 276.347 99.0288 270.576 94.5948C271.583 94.7617 272.617 94.8484 273.671 94.8484C284.049 94.8484 292.461 86.4355 292.461 76.0577C292.461 65.6799 284.049 57.267 273.671 57.267C263.293 57.267 254.88 65.6799 254.88 76.0577C254.88 80.9014 256.713 85.3171 259.722 88.6492C253.367 86.3473 246.492 85.6585 239.734 86.7009C230.657 88.1011 222.338 92.5408 216.157 99.283C214.347 101.257 212.666 103.378 211.193 105.39C208.683 108.821 206.905 112.683 205.124 116.551C203.889 119.233 202.653 121.919 201.17 124.466C198.646 128.801 195.313 132.668 191.352 135.798C184.537 141.18 176.142 144.214 167.434 144.442C158.725 144.669 150.177 142.077 143.08 137.058C135.982 132.039 130.722 124.865 128.092 116.619C125.462 108.373 125.606 99.5036 128.502 91.3501C131.398 83.1966 136.889 76.2018 144.145 71.4221C151.402 66.6424 160.029 64.3375 168.726 64.8554C173.798 65.1575 178.733 66.4104 183.282 68.5149C188.692 71.0177 195.484 70.6374 199.35 66.1281C203.216 61.6187 202.699 54.7537 197.55 51.7568C189.288 46.9484 179.97 44.0874 170.32 43.4635Z" fill="#ED3944"/>
<path d="M304.095 164.414C305.317 165.177 307.34 165.559 310.165 165.559C312.991 165.559 314.976 165.177 316.121 164.414C317.343 163.65 318.068 162.619 318.297 161.321C318.603 159.947 318.755 158.534 318.755 157.083V136.238C318.755 134.024 319.175 132.115 320.015 130.511C320.932 128.908 322.191 127.648 323.795 126.732C325.398 125.816 327.307 125.357 329.522 125.357C331.736 125.357 333.607 125.816 335.134 126.732C336.661 127.572 337.806 128.793 338.57 130.397C339.333 132 339.715 133.947 339.715 136.238V156.969C339.715 158.42 339.868 159.832 340.173 161.207C340.479 162.505 341.204 163.574 342.349 164.414C343.571 165.177 345.633 165.559 348.534 165.559C351.359 165.559 353.345 165.177 354.49 164.414C355.712 163.65 356.437 162.619 356.666 161.321C356.972 159.947 357.124 158.534 357.124 157.083V136.238C357.124 132.191 356.59 128.488 355.521 125.128C354.528 121.692 353.039 118.714 351.054 116.195C349.069 113.675 346.625 111.766 343.724 110.468C340.899 109.094 337.654 108.406 333.988 108.406C332.232 108.406 330.438 108.674 328.605 109.208C326.849 109.743 325.169 110.506 323.566 111.499C322.039 112.415 320.741 113.484 319.672 114.706C319.173 115.281 318.78 115.857 318.494 116.432L318.641 115.966C318.488 115.66 318.412 115.126 318.412 114.362C318.412 113.522 318.221 112.644 317.839 111.728C317.534 110.812 316.808 110.048 315.663 109.437C314.518 108.75 312.723 108.406 310.28 108.406C307.455 108.406 305.431 108.788 304.21 109.552C303.064 110.315 302.339 111.346 302.034 112.644C301.728 113.866 301.575 115.202 301.575 116.653V156.969C301.575 158.42 301.69 159.832 301.919 161.207C302.224 162.505 302.95 163.574 304.095 164.414Z" fill="#ED3944"/>
<path d="M387.624 166.59C385.562 166.59 383.309 166.361 380.866 165.902C378.499 165.444 376.17 164.795 373.879 163.955C371.589 163.039 369.68 162.008 368.153 160.863C366.626 159.641 365.748 158.267 365.518 156.74C365.366 155.976 365.366 155.174 365.518 154.335C365.748 153.418 366.129 152.502 366.664 151.586C367.198 150.593 367.847 149.562 368.611 148.493C369.222 147.653 369.909 147.119 370.672 146.89C371.436 146.661 372.314 146.699 373.307 147.004C374.528 147.233 375.75 147.653 376.972 148.264C378.27 148.799 379.53 149.41 380.751 150.097C382.049 150.708 383.386 151.28 384.76 151.815C386.135 152.273 387.547 152.502 388.998 152.502C391.136 152.502 392.778 152.197 393.923 151.586C395.145 150.898 395.755 149.982 395.755 148.837C395.755 147.997 395.488 147.31 394.954 146.775C394.496 146.241 393.808 145.783 392.892 145.401C392.052 144.943 391.06 144.561 389.914 144.256C388.769 143.95 387.509 143.645 386.135 143.339C384.837 142.957 383.5 142.576 382.126 142.194C380.217 141.659 378.384 140.972 376.628 140.132C374.872 139.292 373.269 138.223 371.818 136.925C370.367 135.551 369.222 133.909 368.382 132C367.542 130.015 367.122 127.61 367.122 124.785C367.122 121.043 368 117.913 369.756 115.393C371.512 112.873 374.07 110.964 377.43 109.666C380.79 108.292 384.875 107.605 389.685 107.605C391.06 107.605 392.434 107.681 393.808 107.834C395.183 107.986 396.519 108.254 397.817 108.635C399.191 109.017 400.528 109.475 401.826 110.01C403.124 110.544 404.422 111.193 405.72 111.957C408.011 113.026 409.194 114.477 409.27 116.309C409.347 118.142 408.698 120.013 407.323 121.921C406.483 123.219 405.605 124.174 404.689 124.785C403.773 125.319 402.818 125.472 401.826 125.243C400.604 124.937 399.268 124.441 397.817 123.754C396.443 123.067 394.954 122.418 393.35 121.807C391.823 121.196 390.296 120.891 388.769 120.891C387.471 120.891 386.364 121.081 385.447 121.463C384.531 121.769 383.844 122.227 383.386 122.838C382.928 123.372 382.699 124.021 382.699 124.785C382.699 125.777 382.966 126.579 383.5 127.19C384.111 127.724 384.913 128.183 385.905 128.564C386.898 128.946 388.043 129.29 389.341 129.595C390.64 129.901 392.052 130.206 393.579 130.511C395.641 130.893 397.741 131.428 399.879 132.115C402.093 132.726 404.078 133.642 405.834 134.864C407.667 136.085 409.118 137.727 410.187 139.789C411.332 141.85 411.905 144.561 411.905 147.921C411.905 153.953 409.805 158.572 405.605 161.779C401.406 164.986 395.412 166.59 387.624 166.59Z" fill="#ED3944"/>
<path d="M435.02 163.497C438.151 164.872 441.472 165.559 444.984 165.559C447.199 165.559 449.146 165.215 450.826 164.528C452.506 163.841 453.956 163.039 455.178 162.123C456.476 161.13 457.507 160.214 458.27 159.374L458.277 159.367C458.291 159.859 458.327 160.396 458.385 160.977C458.538 161.741 458.881 162.466 459.416 163.154C459.95 163.841 460.79 164.414 461.935 164.872C463.081 165.33 464.684 165.559 466.746 165.559C469.495 165.559 471.48 165.177 472.702 164.414C473.923 163.65 474.649 162.657 474.878 161.436C475.183 160.138 475.336 158.763 475.336 157.312V116.996C475.336 115.546 475.183 114.171 474.878 112.873C474.649 111.499 473.923 110.392 472.702 109.552C471.556 108.712 469.571 108.292 466.746 108.292C463.921 108.292 461.897 108.712 460.676 109.552C459.53 110.315 458.805 111.346 458.499 112.644C458.194 113.942 458.041 115.355 458.041 116.882V137.727C458.041 139.941 457.583 141.85 456.667 143.454C455.827 145.057 454.605 146.317 453.002 147.233C451.475 148.073 449.604 148.493 447.39 148.493C445.252 148.493 443.381 148.073 441.777 147.233C440.25 146.394 439.067 145.172 438.227 143.568C437.463 141.888 437.082 139.941 437.082 137.727V117.111C437.082 115.584 436.929 114.171 436.623 112.873C436.394 111.499 435.669 110.392 434.447 109.552C433.302 108.712 431.317 108.292 428.492 108.292C425.666 108.292 423.643 108.712 422.421 109.552C421.276 110.392 420.551 111.461 420.245 112.759C419.94 114.057 419.787 115.469 419.787 116.996V137.727C419.787 141.774 420.398 145.515 421.62 148.951C422.918 152.311 424.712 155.251 427.003 157.771C429.293 160.214 431.966 162.123 435.02 163.497Z" fill="#ED3944"/>
<path d="M507.335 165.673C504.204 165.673 501.417 165.482 498.974 165.101C496.607 164.795 494.545 164.184 492.789 163.268C491.109 162.352 489.735 161.092 488.666 159.489C487.597 157.885 486.795 155.823 486.26 153.304C485.802 150.708 485.573 147.539 485.573 143.797V90.8827C485.573 89.3556 485.688 87.943 485.917 86.6449C486.222 85.3469 486.986 84.2779 488.208 83.438C489.429 82.5981 491.415 82.1781 494.163 82.1781C496.912 82.1781 498.859 82.5981 500.005 83.438C501.226 84.2779 501.99 85.3469 502.295 86.6449C502.601 87.943 502.753 89.3556 502.753 90.8827V142.996C502.753 144.217 502.792 145.248 502.868 146.088C503.021 146.852 503.25 147.462 503.555 147.921C503.937 148.379 504.433 148.684 505.044 148.837C505.655 148.99 506.457 149.066 507.449 149.066C508.366 149.066 509.282 149.18 510.198 149.41C511.191 149.639 512.031 150.326 512.718 151.471C513.405 152.617 513.749 154.525 513.749 157.198C513.749 159.947 513.405 161.932 512.718 163.154C512.031 164.375 511.191 165.101 510.198 165.33C509.282 165.559 508.327 165.673 507.335 165.673Z" fill="#ED3944"/>
<path d="M523.781 164.528C525.003 165.292 527.026 165.673 529.851 165.673C532.677 165.673 534.662 165.292 535.807 164.528C537.029 163.764 537.754 162.734 537.983 161.436C538.289 160.061 538.441 158.649 538.441 157.198V117.34C538.441 115.737 538.289 114.286 537.983 112.988C537.754 111.69 537.029 110.621 535.807 109.781C534.662 108.941 532.715 108.521 529.966 108.521C527.141 108.521 525.117 108.941 523.896 109.781C522.674 110.544 521.91 111.575 521.605 112.873C521.376 114.171 521.261 115.584 521.261 117.111V157.083C521.261 158.534 521.376 159.947 521.605 161.321C521.91 162.619 522.636 163.688 523.781 164.528Z" fill="#ED3944"/>
<path fill-rule="evenodd" clip-rule="evenodd" d="M576.587 166.59C572.998 166.59 569.409 165.902 565.82 164.528C562.308 163.077 559.101 161.054 556.2 158.458C553.298 155.862 551.007 152.769 549.328 149.18C547.648 145.515 546.808 141.469 546.808 137.04C546.808 132.917 547.571 129.099 549.098 125.586C550.626 121.998 552.764 118.829 555.512 116.08C558.261 113.331 561.392 111.193 564.904 109.666C568.493 108.063 572.311 107.261 576.358 107.261C581.855 107.261 586.818 108.597 591.247 111.27C595.752 113.866 599.341 117.416 602.013 121.921C604.686 126.426 606.022 131.428 606.022 136.925C606.022 141.583 605.144 145.744 603.388 149.41C601.708 152.998 599.417 156.091 596.516 158.687C593.69 161.283 590.522 163.268 587.009 164.643C583.573 165.941 580.099 166.59 576.587 166.59ZM576.358 149.295C578.19 149.295 580.061 148.837 581.97 147.921C583.879 147.004 585.482 145.63 586.78 143.797C588.078 141.965 588.727 139.636 588.727 136.811C588.727 134.367 588.193 132.229 587.124 130.397C586.055 128.564 584.566 127.152 582.657 126.159C580.824 125.09 578.686 124.556 576.243 124.556C573.952 124.556 571.891 125.09 570.058 126.159C568.302 127.228 566.851 128.717 565.706 130.626C564.637 132.459 564.102 134.558 564.102 136.925C564.102 139.674 564.713 142.003 565.935 143.912C567.233 145.744 568.837 147.119 570.745 148.035C572.654 148.875 574.525 149.295 576.358 149.295Z" fill="#ED3944"/>
<path d="M529.583 100.217C535.019 100.217 539.425 95.8105 539.425 90.3745C539.425 84.9384 535.019 80.5317 529.583 80.5317C524.147 80.5317 519.74 84.9384 519.74 90.3745C519.74 95.8105 524.147 100.217 529.583 100.217Z" fill="#ED3944"/>
<defs>
<clipPath id="clip0_201_364">
<rect width="700" height="513.378" fill="white" transform="translate(0 204.795)"/>
</clipPath>
</defs>
</svg>
