<svg width="287" height="94" viewBox="0 0 287 94" fill="none" xmlns="http://www.w3.org/2000/svg">
<path d="M42.6665 24.2868C45.311 21.7169 46.954 18.1219 46.954 14.1431C46.954 6.33209 40.6219 0 32.8109 0C24.9998 0 18.6677 6.33209 18.6677 14.1431C18.6677 19.8266 22.0201 24.727 26.8554 26.9749C24.9471 27.7856 23.1068 28.7698 21.359 29.921C15.1209 34.03 10.4006 40.0432 7.91093 47.0525C5.42127 54.0619 5.2975 61.6867 7.55832 68.7753C7.72384 69.2943 7.90149 69.8083 8.091 70.3171L0 87.1703L16.541 83.1333C17.7551 84.2925 19.0584 85.3672 20.4431 86.3464C26.5445 90.6613 33.8932 92.8893 41.3795 92.6939C48.8658 92.4984 56.0829 89.8902 61.941 85.263C66.6791 81.5205 70.3199 76.6218 72.5295 71.0778C72.7431 70.5417 72.945 69.9994 73.1468 69.457C73.7926 67.7218 74.4385 65.9863 75.471 64.4559C75.8191 63.9399 76.2001 63.4355 76.6019 62.9973C78.3289 61.1135 80.6533 59.8731 83.1894 59.4819C85.7254 59.0907 88.3206 59.5722 90.5442 60.8465C92.7678 62.1208 94.486 64.1113 95.4137 66.4876C96.3415 68.8639 96.423 71.4831 95.6446 73.9104C94.8662 76.3378 93.2749 78.4274 91.1347 79.8324C88.9944 81.2374 86.434 81.8732 83.8783 81.6345C83.2099 81.5721 82.5522 81.4508 81.9126 81.2739C78.9194 80.4461 75.3297 80.3115 73.1647 82.5215C70.9998 84.7316 71.0302 88.3423 73.7245 89.8791C76.5001 91.4623 79.6029 92.4508 82.8321 92.7524C87.9434 93.2299 93.0642 91.9581 97.3447 89.1482C98.3721 88.4738 99.3362 87.7205 100.23 86.8979L110.566 89.4204L105.66 79.2014C105.922 78.582 106.158 77.9491 106.365 77.3043C107.921 72.4495 107.758 67.2112 105.903 62.4586C104.416 58.6494 101.913 55.3359 98.6881 52.8583C99.2507 52.9515 99.8283 53 100.417 53C106.216 53 110.917 48.299 110.917 42.5C110.917 36.701 106.216 32 100.417 32C94.6183 32 89.9173 36.701 89.9173 42.5C89.9173 45.2066 90.9414 47.674 92.6232 49.5359C89.0716 48.2497 85.2301 47.8648 81.4542 48.4473C76.3821 49.2297 71.7333 51.7105 68.2793 55.478C67.2679 56.5811 66.3285 57.7662 65.5056 58.8907C64.1029 60.8076 63.1095 62.9655 62.1144 65.1271C61.4244 66.626 60.7335 68.1267 59.9048 69.5501C58.4945 71.9722 56.6323 74.1333 54.4185 75.882C50.6108 78.8896 45.9196 80.585 41.0535 80.712C36.1875 80.8391 31.4108 79.3909 27.4449 76.5862C23.479 73.7815 20.5393 69.7726 19.0698 65.165C17.6002 60.5573 17.6807 55.6012 19.299 51.0452C20.9172 46.4891 23.9855 42.5805 28.0402 39.9097C32.095 37.2389 36.9161 35.9509 41.7754 36.2403C44.6098 36.4091 47.3674 37.1092 49.9093 38.2852C52.9324 39.6837 56.7276 39.4712 58.8878 36.9515C61.0481 34.4317 60.7595 30.5956 57.8822 28.921C53.2656 26.2341 48.0587 24.6354 42.6665 24.2868Z" fill="#ED3944"/>
<path d="M117.418 91.872C118.101 92.2987 119.231 92.512 120.81 92.512C122.389 92.512 123.498 92.2987 124.138 91.872C124.821 91.4453 125.226 90.8693 125.354 90.144C125.525 89.376 125.61 88.5867 125.61 87.776V76.128C125.61 74.8907 125.845 73.824 126.314 72.928C126.826 72.032 127.53 71.328 128.426 70.816C129.322 70.304 130.389 70.048 131.626 70.048C132.863 70.048 133.909 70.304 134.762 70.816C135.615 71.2853 136.255 71.968 136.682 72.864C137.109 73.76 137.322 74.848 137.322 76.128V87.712C137.322 88.5227 137.407 89.312 137.578 90.08C137.749 90.8053 138.154 91.4027 138.794 91.872C139.477 92.2987 140.629 92.512 142.25 92.512C143.829 92.512 144.938 92.2987 145.578 91.872C146.261 91.4453 146.666 90.8693 146.794 90.144C146.965 89.376 147.05 88.5867 147.05 87.776V76.128C147.05 73.8667 146.751 71.7973 146.154 69.92C145.599 68 144.767 66.336 143.658 64.928C142.549 63.52 141.183 62.4533 139.562 61.728C137.983 60.96 136.17 60.576 134.122 60.576C133.141 60.576 132.138 60.7253 131.114 61.024C130.133 61.3227 129.194 61.7493 128.298 62.304C127.445 62.816 126.719 63.4133 126.122 64.096C125.843 64.4175 125.624 64.7391 125.464 65.0606L125.546 64.8C125.461 64.6293 125.418 64.3307 125.418 63.904C125.418 63.4347 125.311 62.944 125.098 62.432C124.927 61.92 124.522 61.4933 123.882 61.152C123.242 60.768 122.239 60.576 120.874 60.576C119.295 60.576 118.165 60.7893 117.482 61.216C116.842 61.6427 116.437 62.2187 116.266 62.944C116.095 63.6267 116.01 64.3733 116.01 65.184V87.712C116.01 88.5227 116.074 89.312 116.202 90.08C116.373 90.8053 116.778 91.4027 117.418 91.872Z" fill="#ED3944"/>
<path d="M164.093 93.088C162.941 93.088 161.682 92.96 160.317 92.704C158.994 92.448 157.693 92.0853 156.413 91.616C155.133 91.104 154.066 90.528 153.213 89.888C152.359 89.2053 151.869 88.4373 151.741 87.584C151.655 87.1573 151.655 86.7093 151.741 86.24C151.869 85.728 152.082 85.216 152.381 84.704C152.679 84.1493 153.042 83.5733 153.469 82.976C153.81 82.5067 154.194 82.208 154.621 82.08C155.047 81.952 155.538 81.9733 156.093 82.144C156.775 82.272 157.458 82.5067 158.141 82.848C158.866 83.1467 159.57 83.488 160.253 83.872C160.978 84.2133 161.725 84.5333 162.493 84.832C163.261 85.088 164.05 85.216 164.861 85.216C166.055 85.216 166.973 85.0453 167.613 84.704C168.295 84.32 168.637 83.808 168.637 83.168C168.637 82.6987 168.487 82.3147 168.189 82.016C167.933 81.7173 167.549 81.4613 167.037 81.248C166.567 80.992 166.013 80.7787 165.373 80.608C164.733 80.4373 164.029 80.2667 163.261 80.096C162.535 79.8827 161.789 79.6693 161.021 79.456C159.954 79.1573 158.93 78.7733 157.949 78.304C156.967 77.8347 156.071 77.2373 155.261 76.512C154.45 75.744 153.81 74.8267 153.341 73.76C152.871 72.6507 152.637 71.3067 152.637 69.728C152.637 67.6373 153.127 65.888 154.109 64.48C155.09 63.072 156.519 62.0053 158.397 61.28C160.274 60.512 162.557 60.128 165.245 60.128C166.013 60.128 166.781 60.1707 167.549 60.256C168.317 60.3413 169.063 60.4907 169.789 60.704C170.557 60.9173 171.303 61.1733 172.029 61.472C172.754 61.7707 173.479 62.1333 174.205 62.56C175.485 63.1573 176.146 63.968 176.189 64.992C176.231 66.016 175.869 67.0613 175.101 68.128C174.631 68.8533 174.141 69.3867 173.629 69.728C173.117 70.0267 172.583 70.112 172.029 69.984C171.346 69.8133 170.599 69.536 169.789 69.152C169.021 68.768 168.189 68.4053 167.293 68.064C166.439 67.7227 165.586 67.552 164.733 67.552C164.007 67.552 163.389 67.6587 162.877 67.872C162.365 68.0427 161.981 68.2987 161.725 68.64C161.469 68.9387 161.341 69.3013 161.341 69.728C161.341 70.2827 161.49 70.7307 161.789 71.072C162.13 71.3707 162.578 71.6267 163.133 71.84C163.687 72.0533 164.327 72.2453 165.053 72.416C165.778 72.5867 166.567 72.7573 167.421 72.928C168.573 73.1413 169.746 73.44 170.941 73.824C172.178 74.1653 173.287 74.6773 174.269 75.36C175.293 76.0427 176.103 76.96 176.701 78.112C177.341 79.264 177.661 80.7787 177.661 82.656C177.661 86.0267 176.487 88.608 174.141 90.4C171.794 92.192 168.445 93.088 164.093 93.088Z" fill="#ED3944"/>
<path d="M190.577 91.36C192.326 92.128 194.182 92.512 196.145 92.512C197.382 92.512 198.47 92.32 199.409 91.936C200.348 91.552 201.158 91.104 201.841 90.592C202.566 90.0373 203.142 89.5253 203.569 89.056L203.573 89.052C203.58 89.3273 203.601 89.6273 203.633 89.952C203.718 90.3787 203.91 90.784 204.209 91.168C204.508 91.552 204.977 91.872 205.617 92.128C206.257 92.384 207.153 92.512 208.305 92.512C209.841 92.512 210.95 92.2987 211.633 91.872C212.316 91.4453 212.721 90.8907 212.849 90.208C213.02 89.4827 213.105 88.7147 213.105 87.904V65.376C213.105 64.5653 213.02 63.7973 212.849 63.072C212.721 62.304 212.316 61.6853 211.633 61.216C210.993 60.7467 209.884 60.512 208.305 60.512C206.726 60.512 205.596 60.7467 204.913 61.216C204.273 61.6427 203.868 62.2187 203.697 62.944C203.526 63.6693 203.441 64.4587 203.441 65.312V76.96C203.441 78.1973 203.185 79.264 202.673 80.16C202.204 81.056 201.521 81.76 200.625 82.272C199.772 82.7413 198.726 82.976 197.489 82.976C196.294 82.976 195.249 82.7413 194.353 82.272C193.5 81.8027 192.838 81.12 192.369 80.224C191.942 79.2853 191.729 78.1973 191.729 76.96V65.44C191.729 64.5867 191.644 63.7973 191.473 63.072C191.345 62.304 190.94 61.6853 190.257 61.216C189.617 60.7467 188.508 60.512 186.929 60.512C185.35 60.512 184.22 60.7467 183.537 61.216C182.897 61.6853 182.492 62.2827 182.321 63.008C182.15 63.7333 182.065 64.5227 182.065 65.376V76.96C182.065 79.2213 182.406 81.312 183.089 83.232C183.814 85.1093 184.817 86.752 186.097 88.16C187.377 89.5253 188.87 90.592 190.577 91.36Z" fill="#ED3944"/>
<path d="M230.986 92.576C229.236 92.576 227.679 92.4693 226.314 92.256C224.991 92.0853 223.839 91.744 222.858 91.232C221.919 90.72 221.151 90.016 220.554 89.12C219.956 88.224 219.508 87.072 219.21 85.664C218.954 84.2133 218.826 82.4427 218.826 80.352V50.784C218.826 49.9307 218.89 49.1413 219.018 48.416C219.188 47.6907 219.615 47.0933 220.298 46.624C220.98 46.1547 222.09 45.92 223.626 45.92C225.162 45.92 226.25 46.1547 226.89 46.624C227.572 47.0933 227.999 47.6907 228.17 48.416C228.34 49.1413 228.426 49.9307 228.426 50.784V79.904C228.426 80.5867 228.447 81.1627 228.49 81.632C228.575 82.0587 228.703 82.4 228.874 82.656C229.087 82.912 229.364 83.0827 229.706 83.168C230.047 83.2533 230.495 83.296 231.05 83.296C231.562 83.296 232.074 83.36 232.586 83.488C233.14 83.616 233.61 84 233.994 84.64C234.378 85.28 234.57 86.3467 234.57 87.84C234.57 89.376 234.378 90.4853 233.994 91.168C233.61 91.8507 233.14 92.256 232.586 92.384C232.074 92.512 231.54 92.576 230.986 92.576Z" fill="#ED3944"/>
<path d="M240.176 91.936C240.858 92.3627 241.989 92.576 243.568 92.576C245.146 92.576 246.256 92.3627 246.896 91.936C247.578 91.5093 247.984 90.9333 248.112 90.208C248.282 89.44 248.368 88.6507 248.368 87.84V65.568C248.368 64.672 248.282 63.8613 248.112 63.136C247.984 62.4107 247.578 61.8133 246.896 61.344C246.256 60.8747 245.168 60.64 243.632 60.64C242.053 60.64 240.922 60.8747 240.24 61.344C239.557 61.7707 239.13 62.3467 238.96 63.072C238.832 63.7973 238.768 64.5867 238.768 65.44V87.776C238.768 88.5867 238.832 89.376 238.96 90.144C239.13 90.8693 239.536 91.4667 240.176 91.936Z" fill="#ED3944"/>
<path fill-rule="evenodd" clip-rule="evenodd" d="M269.683 93.088C267.677 93.088 265.672 92.704 263.667 91.936C261.704 91.1253 259.912 89.9947 258.291 88.544C256.669 87.0933 255.389 85.3653 254.451 83.36C253.512 81.312 253.043 79.0507 253.043 76.576C253.043 74.272 253.469 72.1387 254.323 70.176C255.176 68.1707 256.371 66.4 257.907 64.864C259.443 63.328 261.192 62.1333 263.155 61.28C265.16 60.384 267.293 59.936 269.555 59.936C272.627 59.936 275.4 60.6827 277.875 62.176C280.392 63.6267 282.397 65.6107 283.891 68.128C285.384 70.6453 286.131 73.44 286.131 76.512C286.131 79.1147 285.64 81.44 284.659 83.488C283.72 85.4933 282.44 87.2213 280.819 88.672C279.24 90.1227 277.469 91.232 275.507 92C273.587 92.7253 271.645 93.088 269.683 93.088ZM269.555 83.424C270.579 83.424 271.624 83.168 272.691 82.656C273.757 82.144 274.653 81.376 275.379 80.352C276.104 79.328 276.467 78.0267 276.467 76.448C276.467 75.0827 276.168 73.888 275.571 72.864C274.973 71.84 274.141 71.0507 273.075 70.496C272.051 69.8987 270.856 69.6 269.491 69.6C268.211 69.6 267.059 69.8987 266.035 70.496C265.053 71.0933 264.243 71.9253 263.603 72.992C263.005 74.016 262.707 75.1893 262.707 76.512C262.707 78.048 263.048 79.3493 263.731 80.416C264.456 81.44 265.352 82.208 266.419 82.72C267.485 83.1893 268.531 83.424 269.555 83.424Z" fill="#ED3944"/>
<path d="M243.417 56C246.455 56 248.917 53.5376 248.917 50.5C248.917 47.4624 246.455 45 243.417 45C240.38 45 237.917 47.4624 237.917 50.5C237.917 53.5376 240.38 56 243.417 56Z" fill="#ED3944"/>
</svg>
