<svg width="140" height="141" viewBox="0 0 140 141" fill="none" xmlns="http://www.w3.org/2000/svg">
<path d="M0 73.9628C0.0328116 73.93 0.083852 73.9009 0.0911435 73.8645C2.01974 65.686 11.3711 64.4485 17.0402 69.9518C18.6909 71.5401 19.8223 73.5893 20.2862 75.8307C20.75 78.0721 20.5247 80.4012 19.6396 82.5125C17.7001 87.0731 14.1382 89.4826 9.17997 89.7919C7.95865 89.8647 6.7191 89.7228 5.49777 89.832C2.94576 90.054 1.09008 89.1659 0 86.811V73.9628Z" fill="#ED3944"/>
<path d="M139.996 86.8037C138.903 89.1586 137.04 90.0395 134.499 89.8211C132.647 89.6609 130.747 89.8429 128.928 89.5335C123.058 88.5435 118.898 82.9274 119.536 77.0565C119.841 74.1091 121.259 71.3884 123.503 69.4484C125.746 67.5083 128.646 66.4948 131.611 66.6142C133.37 66.7175 135.059 67.3404 136.463 68.4038C137.867 69.4673 138.923 70.9233 139.497 72.587C139.661 73.0492 139.832 73.5078 140 73.97L139.996 86.8037Z" fill="#ED3944"/>
<path d="M121.95 129.392C121.95 122.266 121.95 115.354 121.95 108.442C121.977 107.852 121.939 107.262 121.837 106.68C121.642 105.671 121.073 104.773 120.244 104.165C119.414 103.557 118.385 103.284 117.363 103.401C116.341 103.518 115.4 104.016 114.73 104.795C114.059 105.575 113.708 106.578 113.747 107.605C113.718 114.247 113.747 120.89 113.747 127.532V129.287H74.0996V127.751C74.0996 114.648 74.0486 101.545 74.0996 88.4416C74.1653 75.3968 69.331 64.656 59.2906 56.2773C59.1594 56.1681 59.0537 56.0298 58.7948 55.7605C59.2943 55.7277 59.6297 55.6841 59.9651 55.6841C66.8446 55.6841 73.7278 55.6841 80.6073 55.7095C81.2157 55.7134 81.8027 55.9341 82.2624 56.3319C91.7997 65.999 103.043 68.8708 116.015 64.7943C116.135 64.7746 116.257 64.7649 116.379 64.7652C110.459 72.3067 109.274 80.3469 114.308 88.6236C119.413 97.0459 127.659 98.7748 136.887 97.8685C136.916 98.5164 136.956 98.9604 136.956 99.3899C136.956 107.805 136.956 116.221 136.956 124.639C136.956 127.816 135.359 129.37 132.151 129.396L121.95 129.392Z" fill="#ED3944"/>
<path d="M3.00773 97.985C4.88894 97.985 6.60972 97.985 8.33416 97.985C16.7194 97.9049 23.0629 94.2615 26.6941 86.7309C30.3253 79.2003 29.1878 71.9718 23.9963 65.4058L23.3911 64.6269C28.4222 66.3266 33.3075 66.9891 38.3386 66.3448C43.3001 65.7085 48.0441 63.9237 52.1924 61.1327C59.2505 66.1701 63.7275 72.8308 65.3389 81.3223C65.6983 83.2428 65.8802 85.1922 65.8821 87.1459C65.9295 100.839 65.9077 114.535 65.9077 128.231V129.287H26.2493V127.831C26.2493 121.145 26.2675 114.455 26.2493 107.765C26.2493 104.526 23.1905 102.502 20.4161 103.863C18.7828 104.66 18.0537 106.047 18.0573 107.841C18.0573 114.488 18.0573 121.131 18.0573 127.773V129.349C14.1637 129.349 10.4013 129.454 6.62795 129.312C4.44051 129.228 3.02596 127.328 3.02232 124.926C3.02232 117.647 3.02232 110.367 3.02232 103.088L3.00773 97.985Z" fill="#ED3944"/>
<path d="M11.2106 35.1633C11.2186 30.5727 12.5903 26.0877 15.1522 22.2756C17.714 18.4636 21.351 15.4958 25.6027 13.7479C29.8545 12 34.5301 11.5505 39.0378 12.4563C43.5456 13.362 47.683 15.5823 50.9264 18.8362C54.1699 22.0901 56.3737 26.2314 57.2589 30.7361C58.1442 35.2407 57.6712 39.9064 55.8998 44.1426C54.1283 48.3788 51.138 51.9952 47.3073 54.5343C43.4765 57.0734 38.9774 58.421 34.3793 58.4066C28.2239 58.3777 22.3306 55.916 17.9886 51.5601C13.6467 47.2041 11.2096 41.3086 11.2106 35.1633Z" fill="#ED3944"/>
<path d="M128.786 35.1997C128.786 39.7904 127.423 44.2781 124.868 48.0951C122.313 51.912 118.682 54.8866 114.433 56.6424C110.185 58.3982 105.51 58.8563 101 57.9587C96.4905 57.0612 92.349 54.8483 89.0995 51.6002C85.8501 48.352 83.6388 44.2145 82.7454 39.7113C81.852 35.208 82.3168 30.5414 84.0808 26.3019C85.8448 22.0624 88.8288 18.4406 92.6553 15.8948C96.4818 13.349 100.979 11.9935 105.577 12C111.731 12.0202 117.627 14.4719 121.976 18.8191C126.325 23.1663 128.773 29.0556 128.786 35.1997Z" fill="#ED3944"/>
</svg>
