<svg width="140" height="141" viewBox="0 0 140 141" fill="none" xmlns="http://www.w3.org/2000/svg">
<path d="M57.5145 1C59.6617 1.55781 61.8891 1.92604 63.9487 2.69896C74.382 6.61094 80.8016 17.2823 79.6241 28.526C79.0285 33.9349 76.6662 38.9965 72.9031 42.9268C69.14 46.8571 64.1861 49.4367 58.8087 50.2661C45.1601 52.326 32.4412 42.9927 30.4836 29.4849C29.9966 26.2442 30.157 22.9391 30.9553 19.7608C31.7536 16.5825 33.174 13.594 35.1345 10.9681C37.0949 8.34226 39.5565 6.13119 42.3767 4.46276C45.197 2.79433 48.32 1.70164 51.5652 1.24791C51.8229 1.1914 52.0744 1.10958 52.3161 1.00364L57.5145 1Z" fill="#ED3944"/>
<path d="M76.048 51.2323C82.9269 56.3802 87.4655 62.9427 89.7694 71.2333C78.5269 71.8531 69.0706 76.1807 61.6995 84.6099C54.3284 93.0391 51.3319 102.934 52.1958 114.203H26.4009C22.9632 114.203 19.0259 112.646 19.0259 109.176C19.0259 99.7438 18.9676 90.312 19.0259 80.8766C19.1207 68.8708 23.8853 59.1109 33.3707 51.7099C33.5457 51.575 33.7353 51.4583 33.9868 51.287C40.144 56.2089 47.1104 58.7974 55.0356 58.7828C62.9608 58.7682 69.8616 56.1943 76.048 51.2323Z" fill="#ED3944"/>
<path fill-rule="evenodd" clip-rule="evenodd" d="M90.9979 141C108.011 141 121.802 127.207 121.802 110.193C121.802 93.1783 108.011 79.3854 90.9979 79.3854C73.9854 79.3854 60.1939 93.1783 60.1939 110.193C60.1939 127.207 73.9854 141 90.9979 141ZM110.137 95.9162C110.137 95.3029 109.64 94.8054 109.027 94.8049C107.571 94.8038 106.116 94.8045 104.661 94.8071C102.6 94.8101 101.179 96.23 101.179 98.3036C101.177 99.1596 101.179 100.016 101.18 100.872C101.183 102.212 101.185 103.552 101.174 104.892C101.152 107.086 100.408 109.213 99.0564 110.942C98.3531 111.842 97.4255 112.624 96.3982 113.245C94.9829 114.1 93.4008 112.903 93.4008 111.249V96.074C93.4008 95.1379 93.8115 94.7321 94.7594 94.7321H96.7332C97.3466 94.7321 97.8439 94.2348 97.8439 93.6213C97.8439 93.0078 97.3466 92.5104 96.7332 92.5104H85.6518C85.0237 92.5104 84.5145 93.0196 84.5145 93.6478V94.365C84.5145 94.56 84.6652 94.7321 84.8601 94.7321H87.6356C88.5311 94.7331 88.9577 95.1488 88.9577 96.0375V110.943C88.9577 112.694 87.2221 113.876 85.7442 112.937C84.6283 112.227 83.604 111.391 83.0063 110.542C81.826 108.866 81.1898 106.868 81.1842 104.819C81.1789 103.379 81.1807 101.939 81.1824 100.5C81.1833 99.7801 81.1842 99.0605 81.1842 98.3411C81.1822 96.2211 79.7762 94.8071 77.6642 94.8071H73.3346C72.7212 94.8071 72.2239 95.3045 72.2239 95.918C72.2239 96.5315 72.7212 97.0288 73.3346 97.0288H75.5177C76.2849 97.0308 76.7401 97.4801 76.7401 98.2463V104.685C76.7499 111.645 81.432 117.443 88.229 118.924C88.3438 118.949 88.4592 118.97 88.5779 118.991C88.7909 119.03 88.9577 119.209 88.9577 119.425V126.9C88.9567 127.785 88.5301 128.205 87.6356 128.205H85.6253C85.0118 128.205 84.5145 128.703 84.5145 129.316C84.5145 129.93 85.0118 130.427 85.6253 130.427H96.7312C97.3457 130.427 97.8439 129.929 97.8439 129.314C97.8439 128.7 97.3457 128.201 96.7312 128.201H96.0528C95.8804 128.201 95.7079 128.203 95.5354 128.205C95.19 128.208 94.8444 128.211 94.4987 128.201C93.8866 128.186 93.4047 127.729 93.4047 127.122C93.3995 125.354 93.4012 123.586 93.403 121.818C93.4038 120.937 93.4047 120.057 93.4047 119.176C93.4047 119.169 93.4052 119.162 93.4064 119.155C93.4143 119.11 93.4531 119.078 93.4981 119.067C93.6722 119.026 93.8478 118.988 94.0237 118.949C94.4564 118.855 94.8907 118.76 95.3093 118.619C101.189 116.63 104.607 112.565 105.527 106.42C105.6 105.832 105.631 105.24 105.619 104.648C105.623 103.242 105.622 101.835 105.621 100.429C105.62 99.7255 105.619 99.0224 105.619 98.3194C105.62 97.4554 106.05 97.0278 106.917 97.0278H109.025C109.639 97.0278 110.137 96.5301 110.137 95.9162Z" fill="#ED3944"/>
</svg>
